<svg xmlns="http://www.w3.org/2000/svg" viewBox="0 0 500 500"><g id="freepik--Floor--inject-123"><ellipse id="freepik--floor--inject-123" cx="250" cy="349.84" rx="244.07" ry="140.91" style="fill:#fafafa"></ellipse></g><g id="freepik--Shadows--inject-123"><path id="freepik--Shadow--inject-123" d="M409.26,403l63.45-41.22c4.63-3,4.5-7.69-.28-10.45l-36.52-21.08c-4.78-2.76-12.63-2.94-17.53-.4l-72.14,37.42c-4.9,2.54-5,6.83-.21,9.59l46.18,26.6C397,406.18,404.63,406,409.26,403Z" style="fill:#e6e6e6"></path><path id="freepik--shadow--inject-123" d="M62.05,448.18,9.52,417.88c-4.78-2.76-4.78-7.24,0-10L179,310c4.79-2.76,12.55-2.77,17.34,0L248.9,340.3c4.79,2.75,4.78,7.24,0,10L79.37,448.18C74.59,450.94,66.83,450.94,62.05,448.18Z" style="fill:#e0e0e0"></path><ellipse id="freepik--shadow--inject-123" cx="330.42" cy="415.28" rx="86.21" ry="49.77" style="fill:#e6e6e6"></ellipse></g><g id="freepik--Plants--inject-123"><g id="freepik--plants--inject-123"><path d="M483.32,307.23c-2.29,2.47-5.65,5.82-8.95,9.52-4.92,5.54-9.69,11.88-10.46,17.21l-.15.52h0l-2.3,7.92-.42,2.36-6.38-3.7c.45-7.76,1.15-18.52,5.82-29.42,4.31-10,15.48-19.55,21.82-18.71C488.2,293.72,489.06,301.08,483.32,307.23Z" style="fill:#6B2B87"></path><path d="M483.32,307.23c-2.29,2.47-5.65,5.82-8.95,9.52-4.92,5.54-9.69,11.88-10.46,17.21l-.15.52h0l-2.3,7.92-.42,2.36-6.38-3.7c.45-7.76,1.15-18.52,5.82-29.42,4.31-10,15.48-19.55,21.82-18.71C488.2,293.72,489.06,301.08,483.32,307.23Z" style="fill:#fff;opacity:0.30000000000000004"></path><path d="M458.13,338.46a.38.38,0,0,0,.32-.34c2.18-20,14.41-36,24.07-40.55a.37.37,0,0,0,.18-.5.38.38,0,0,0-.51-.19c-9.82,4.63-22.29,20.9-24.5,41.16a.38.38,0,0,0,.34.42Z" style="fill:#fff"></path><path d="M490.2,324.81c-1.93,3.41-10.08,5.3-16.57,9.61-5.87,3.89-9.54,8.66-10.43,11.58h0l-2-1.17-1.77-1c3.81-13.67,12.14-21.24,18.26-24.92a14,14,0,0,1,5.9-1.78C490.17,316.88,492.52,320.72,490.2,324.81Z" style="fill:#6B2B87"></path><path d="M490.2,324.81c-1.93,3.41-10.08,5.3-16.57,9.61-5.87,3.89-9.54,8.66-10.43,11.58l-2.05-1.18-1.77-1c3.81-13.67,12.14-21.24,18.26-24.92a14,14,0,0,1,5.9-1.78C490.17,316.88,492.52,320.72,490.2,324.81Z" style="fill:#fff;opacity:0.6000000000000001"></path><path d="M462,342.9a.37.37,0,0,0,.33-.24c5.74-15.17,17.48-20.31,22.89-20.92a.37.37,0,0,0,.33-.42.36.36,0,0,0-.42-.33c-6,.66-17.65,5.92-23.51,21.4a.39.39,0,0,0,.22.49A.3.3,0,0,0,462,342.9Z" style="fill:#fff"></path></g></g><g id="freepik--Antenna--inject-123"><g id="freepik--antenna--inject-123"><rect x="230.8" y="177.78" width="25.33" height="2" transform="translate(-57.91 199.08) rotate(-40.14)" style="fill:#e0e0e0"></rect><rect x="227.02" y="203.73" width="27.87" height="2" transform="translate(-69.02 142.38) rotate(-28.98)" style="fill:#e0e0e0"></rect><rect x="222.8" y="229.7" width="31.21" height="2" transform="translate(-62.78 91.61) rotate(-19.27)" style="fill:#e0e0e0"></rect><rect x="218.36" y="255.21" width="35.18" height="2" transform="translate(-48.93 55.81) rotate(-12.23)" style="fill:#e0e0e0"></rect><path d="M253.14,308.92a1,1,0,0,1-.5-.14l-38.72-22.27a1,1,0,0,1-.48-1.05,1,1,0,0,1,.83-.8l18.92-2.86L218,260.52a1,1,0,0,1,.07-1.25,1,1,0,0,1,1.24-.19l30.65,17.69L222.84,236.4a1,1,0,0,1,.1-1.24,1,1,0,0,1,1.23-.19l26.19,14.79L227.91,212a1,1,0,0,1,.14-1.21,1,1,0,0,1,1.22-.17L250.75,223,232.89,187.4a1,1,0,0,1,1.39-1.32l16.79,9.56L237,162.3a1,1,0,0,1,.16-1L245.79,151l-4.27-13.33a1,1,0,0,1,.33-1.09,1,1,0,0,1,1.14-.07l10.66,6.42a1,1,0,0,1,.47.7,1,1,0,0,1-.22.8l-5.86,7,6.05,18.91a1,1,0,0,1-1.44,1.17L240,164.25l14.06,33.33a1,1,0,0,1-.25,1.14,1,1,0,0,1-1.16.12l-16.49-9.39L254,225.1a1,1,0,0,1-1.4,1.32l-21.06-12.16L254,252a1,1,0,0,1-.15,1.21,1,1,0,0,1-1.2.17l-25.8-14.56L254,279.23a1,1,0,0,1-.1,1.24,1,1,0,0,1-.58.31h0l-16.57,2.51,17.23,24a1,1,0,0,1-.07,1.26A1,1,0,0,1,253.14,308.92ZM217.4,286.2l32.24,18.55L234.5,283.62Zm4.87-23.08,13.14,18.34,14.76-2.23Zm17.19-101.48,11.94,6.83-4.88-15.26Zm4.78-22.08,3.07,9.59,4.31-5.15Z" style="fill:#e0e0e0"></path><path d="M213.5,293.82a2.56,2.56,0,0,1-.73,0,2.49,2.49,0,0,1-2-2.88l30.15-154.48a2.5,2.5,0,1,1,4.93.84L215.65,291.76A2.47,2.47,0,0,1,213.5,293.82Z" style="fill:#f0f0f0"></path><rect x="261.82" y="166.12" width="2" height="25.33" transform="translate(-43.31 264.36) rotate(-49.84)" style="fill:#e0e0e0"></rect><rect x="264.32" y="190.79" width="2" height="27.87" transform="translate(-42.34 337.58) rotate(-61.01)" style="fill:#e0e0e0"></rect><rect x="266.87" y="215.09" width="2" height="31.21" transform="translate(-38.24 407.53) rotate(-70.75)" style="fill:#e0e0e0"></rect><rect x="269.33" y="238.62" width="2" height="35.18" transform="translate(-37.45 465.95) rotate(-77.74)" style="fill:#e0e0e0"></rect><path d="M253.14,308.92a1,1,0,0,1-.81-1.59l17.23-24.05L253,280.78a1,1,0,0,1-.59-.31,1,1,0,0,1-.1-1.24l27.13-40.45-25.8,14.56a1,1,0,0,1-1.35-1.38l22.41-37.7-21.05,12.16a1,1,0,0,1-1.4-1.32l17.88-35.65-16.49,9.39a1,1,0,0,1-1.42-1.26l14.07-33.33-12.65,7.23a1,1,0,0,1-1.12-.09,1,1,0,0,1-.33-1.08l6.06-18.91-5.87-7a1,1,0,0,1-.22-.8,1,1,0,0,1,.47-.7l10.67-6.42a1,1,0,0,1,1.13.07,1,1,0,0,1,.33,1.09L260.48,151l8.63,10.31a1,1,0,0,1,.16,1L255.2,195.64l16.8-9.56a1,1,0,0,1,1.39,1.32L255.52,223,277,210.61a1,1,0,0,1,1.36,1.38l-22.45,37.77L282.11,235a1,1,0,0,1,1.32,1.43l-27.07,40.37L287,259.08a1,1,0,0,1,1.32,1.44L273.09,281.8,292,284.66a1,1,0,0,1,.35,1.85l-38.71,22.27A1,1,0,0,1,253.14,308.92Zm18.64-25.3-15.14,21.13,32.23-18.55Zm-15.67-4.39,14.76,2.23L284,263.12Zm3.65-126-4.89,15.26,11.95-6.83Zm-5.1-9.21,4.3,5.15,3.08-9.59Z" style="fill:#e0e0e0"></path><path d="M253.13,317.3a2.5,2.5,0,0,1-2.5-2.5V141.25a2.5,2.5,0,0,1,5,0V314.8A2.49,2.49,0,0,1,253.13,317.3Z" style="fill:#f0f0f0"></path><path d="M292.77,293.82a2.63,2.63,0,0,0,.74,0,2.49,2.49,0,0,0,2-2.88L265.4,136.45a2.5,2.5,0,1,0-4.93.84l30.15,154.47A2.49,2.49,0,0,0,292.77,293.82Z" style="fill:#f0f0f0"></path><path d="M252.22,142.72l-11.06-6.38a2,2,0,0,1-.91-1.58v-2.85a2.06,2.06,0,0,1,.91-1.59l11.06-6.38a2,2,0,0,1,1.83,0l11.06,6.38a2.06,2.06,0,0,1,.91,1.59v2.85a2,2,0,0,1-.91,1.58l-11.06,6.38A2,2,0,0,1,252.22,142.72Z" style="fill:#ebebeb"></path><path d="M241.16,130.32l11.06-6.38a2,2,0,0,1,1.83,0l11.06,6.38a.56.56,0,0,1,0,1.06l-11.06,6.38a2,2,0,0,1-1.83,0l-11.06-6.38A.56.56,0,0,1,241.16,130.32Z" style="fill:#fafafa"></path><path d="M253.14,138v5a1.92,1.92,0,0,1-.92-.21l-11.05-6.38a2,2,0,0,1-.92-1.59v-2.85a2.06,2.06,0,0,1,.75-1.47c-.33.3-.28.68.17.95l11.05,6.38A1.92,1.92,0,0,0,253.14,138Z" style="fill:#e0e0e0"></path><path d="M253.14,131.46a1,1,0,0,1-1-1V75.74a1,1,0,0,1,2,0v54.72A1,1,0,0,1,253.14,131.46Z" style="fill:#e0e0e0"></path><circle cx="253.14" cy="75.74" r="3.54" style="fill:#e0e0e0"></circle><path d="M253.13,60.28a15.45,15.45,0,0,0-6.23,29.59l.8-1.83a13.46,13.46,0,1,1,10.51.15L259,90a15.45,15.45,0,0,0-5.89-29.74Z" style="fill:#e0e0e0"></path><path d="M253.13,45.24a30.49,30.49,0,0,0-12.31,58.39l.81-1.83a28.49,28.49,0,1,1,22.66.16l.81,1.82a30.49,30.49,0,0,0-12-58.54Z" style="fill:#e0e0e0"></path><path d="M253.13,20.38a55.35,55.35,0,0,0-22.35,106l.81-1.83a53.36,53.36,0,1,1,42.74.15l.8,1.83a55.35,55.35,0,0,0-22-106.14Z" style="fill:#e0e0e0"></path></g></g><g id="freepik--Radio--inject-123"><g id="freepik--radio--inject-123"><path d="M239.15,324.16,232,224.62c-.34-4.78-2.27-8.19-5.14-9.9-3.1-1.84-41.19-23.77-44.09-25.46-3.1-1.8-7.29-1.63-11.75,1L40.84,265.35c-8.65,5-16.19,17.11-16.85,27.06L16.61,403.24c-.35,5.13,1.2,8.68,4,10.24,2.61,1.47,41.25,23.81,44,25.39s6.31,1.23,10.53-1.21l149.73-86.45C233.45,346.22,239.87,334.11,239.15,324.16Z" style="fill:#6B2B87"></path><path d="M237.55,334.81l-6.77-3.93-5,14.12L69.22,435.39l9.83-124.25-51.89-30A31.65,31.65,0,0,0,24,292.41L16.61,403.24c-.35,5.13,1.2,8.68,4,10.24,2.61,1.47,41.25,23.81,44,25.39s6.31,1.23,10.53-1.21l149.73-86.45C230.48,347.94,235.18,341.6,237.55,334.81Z" style="opacity:0.2"></path><path d="M236.75,324.33l-7.18-99.54c-.4-5.57-3.17-8.89-7.41-8.89a12.15,12.15,0,0,0-5.94,1.82L86.07,292.86c-8,4.62-15,15.9-15.64,25.14L63.05,428.83c-.22,3.2.4,5.75,1.74,7.19a4.49,4.49,0,0,0,3.42,1.37,11.78,11.78,0,0,0,5.66-1.82l149.74-86.44C231.51,344.57,237.41,333.44,236.75,324.33ZM220.6,343.91,70.86,430.36a9.72,9.72,0,0,1-1.77.82,10,10,0,0,1,0-2l7.38-110.83c.47-7.21,6.38-16.7,12.64-20.32l130.16-75.14a6.15,6.15,0,0,1,2.92-1c1.13,0,1.37,3,1.4,3.3l7.19,99.54C231.23,331.56,226.49,340.51,220.6,343.91Z" style="fill:#fafafa"></path><path d="M220.41,344,70.67,430.45a8.51,8.51,0,0,1-1.77.82,9.91,9.91,0,0,1,0-1.95l7.38-110.83c.47-7.22,6.38-16.71,12.65-20.32L219.05,223a6.18,6.18,0,0,1,2.92-1c1.14,0,1.38,3,1.4,3.3l7.19,99.54C231,331.65,226.3,340.6,220.41,344Z" style="fill:#6B2B87"></path><path d="M220.41,344,70.67,430.45a8.51,8.51,0,0,1-1.77.82,9.91,9.91,0,0,1,0-1.95l7.38-110.83c.47-7.22,6.38-16.71,12.65-20.32L219.05,223a6.18,6.18,0,0,1,2.92-1c1.14,0,1.38,3,1.4,3.3l7.19,99.54C231,331.65,226.3,340.6,220.41,344Z" style="fill:#fff;opacity:0.7000000000000001"></path><path d="M110.65,295.85v10.93c0,1.66,1.16,2.33,2.6,1.5l73.39-42.37a5.76,5.76,0,0,0,2.61-4.51V250.47c0-1.66-1.17-2.34-2.61-1.5l-73.39,42.37A5.75,5.75,0,0,0,110.65,295.85Z" style="fill:#455a64"></path><path d="M115.54,295.37V296c0,.33.23.47.52.3l67.77-39.13a1.15,1.15,0,0,0,.52-.9v-.61c0-.34-.23-.47-.52-.31l-67.77,39.13A1.17,1.17,0,0,0,115.54,295.37Z" style="fill:#fafafa"></path><path d="M115.54,301.09v.61c0,.33.23.47.52.3l67.77-39.13a1.13,1.13,0,0,0,.52-.9v-.61c0-.33-.23-.47-.52-.3l-67.77,39.13A1.13,1.13,0,0,0,115.54,301.09Z" style="fill:#fafafa"></path><path d="M129.59,284.09l.37-.21c.24-.14.44,0,.44.25v6.11a1,1,0,0,1-.44.75l-.37.22a.27.27,0,0,1-.44-.25v-6.12A1,1,0,0,1,129.59,284.09Z" style="fill:#6B2B87"></path><path d="M140.34,283.54l.37-.22c.24-.14.44,0,.44.25v6.11a1,1,0,0,1-.44.76l-.37.21c-.24.14-.44,0-.44-.25v-6.11A.94.94,0,0,1,140.34,283.54Z" style="fill:#6B2B87"></path><path d="M213.12,237c-1.77-1-4.21-.88-6.91.68-5.41,3.12-9.79,10.7-9.79,16.94,0,3.12,1.1,5.31,2.87,6.33l4.91,2.83c1.77,1,4.2.88,6.9-.68,5.4-3.12,9.79-10.71,9.79-16.95,0-3.12-1.1-5.31-2.88-6.33Z" style="fill:#6B2B87"></path><path d="M213.12,237c-1.77-1-4.21-.88-6.91.68-5.41,3.12-9.79,10.7-9.79,16.94,0,3.12,1.1,5.31,2.87,6.33l4.91,2.83c1.77,1,4.2.88,6.9-.68,5.4-3.12,9.79-10.71,9.79-16.95,0-3.12-1.1-5.31-2.88-6.33Z" style="opacity:0.15"></path><path d="M206.21,254.61l-8.91-5.14a17,17,0,0,0-.88,5.14c0,3.12,1.1,5.31,2.87,6.33l4.91,2.83c1.77,1,4.2.88,6.9-.68a17.09,17.09,0,0,0,4-3.33Z" style="opacity:0.15"></path><path d="M204.62,253.35l-7.23-4.17c-.06.19-.13.38-.19.58l7.12,4.11Zm-6.23-6.64,7.15,4.14.3-.52-7.2-4.16C198.55,246.35,198.47,246.53,198.39,246.71Zm-.61,12.83,6.64,3.83.3-.52-7.56-4.36A6.31,6.31,0,0,0,197.78,259.54Zm6,.12-7.35-4.24c0,.25,0,.49.07.73l7,4Zm.1-3.25-7.28-4.21c0,.22-.06.43-.08.65l7.06,4.08ZM200,243.83,207.2,248l.3-.52-7.16-4.13Zm2-2.59,7.24,4.17.3-.52-7.13-4.11Zm4.93-3.93,7.36,4.24.31-.52-7-4C207.36,237.09,207.13,237.19,206.9,237.31Zm4.2-.94a5.27,5.27,0,0,0-1.19,0l7.58,4.37.3-.52Zm-6.89,2.69,7.29,4.21.3-.52-7.07-4.08C204.55,238.8,204.38,238.92,204.21,239.06Z" style="opacity:0.25"></path><ellipse cx="211.1" cy="251.79" rx="13.84" ry="7.99" transform="translate(-112.51 308.71) rotate(-60)" style="fill:#6B2B87"></ellipse><path d="M206.73,262.32c-3,0-3.31-3.41-3.31-4.88,0-5.46,4-12.39,8.74-15.12a6.88,6.88,0,0,1,3.31-1.06c3,0,3.31,3.41,3.31,4.88,0,5.46-4,12.39-8.73,15.12A6.91,6.91,0,0,1,206.73,262.32Zm8.74-20.45a6.23,6.23,0,0,0-3,1c-4.57,2.64-8.43,9.32-8.43,14.6,0,1.29.26,4.28,2.7,4.28a6.32,6.32,0,0,0,3-1c4.57-2.64,8.43-9.32,8.43-14.6C218.18,244.86,217.91,241.87,215.47,241.87Z" style="fill:#fff"></path><path d="M100.6,302c-1.77-1-4.22-.88-6.92.68-5.4,3.12-9.78,10.71-9.78,16.95,0,3.12,1.09,5.3,2.86,6.32l4.91,2.84c1.77,1,4.21.87,6.91-.68,5.4-3.12,9.78-10.71,9.78-16.95,0-3.12-1.1-5.31-2.87-6.33Z" style="fill:#6B2B87"></path><path d="M100.6,302c-1.77-1-4.22-.88-6.92.68-5.4,3.12-9.78,10.71-9.78,16.95,0,3.12,1.09,5.3,2.86,6.32l4.91,2.84c1.77,1,4.21.87,6.91-.68,5.4-3.12,9.78-10.71,9.78-16.95,0-3.12-1.1-5.31-2.87-6.33Z" style="opacity:0.15"></path><path d="M93.68,319.58l-8.91-5.14a16.85,16.85,0,0,0-.87,5.14c0,3.12,1.09,5.3,2.86,6.32l4.91,2.84c1.77,1,4.21.87,6.91-.68a17.29,17.29,0,0,0,4-3.33Z" style="opacity:0.15"></path><path d="M92.1,318.32l-7.23-4.18c-.07.2-.14.39-.2.59l7.13,4.11Zm-6.24-6.64L93,315.81l.3-.52-7.2-4.15Zm-.61,12.83,6.65,3.83.3-.52-7.56-4.36A6,6,0,0,0,85.25,324.51Zm6,.12-7.35-4.25c0,.26,0,.5.08.74l7,4Zm.1-3.26-7.28-4.2c0,.21,0,.43-.08.65l7.06,4.07Zm-3.91-12.58,7.2,4.16.3-.52-7.16-4.13C87.7,308.46,87.58,308.62,87.47,308.79Zm2-2.59,7.23,4.18.3-.52-7.13-4.12C89.71,305.89,89.58,306.05,89.45,306.2Zm4.93-3.93,7.36,4.25.3-.52-7-4Zm4.19-.93a5.91,5.91,0,0,0-1.19,0l7.58,4.38.3-.52ZM91.68,304,99,308.24l.3-.52-7.07-4.09Z" style="opacity:0.25"></path><ellipse cx="98.58" cy="316.76" rx="13.84" ry="7.99" transform="matrix(0.5, -0.87, 0.87, 0.5, -225.03, 243.75)" style="fill:#6B2B87"></ellipse><path d="M94.21,327.28c-3,0-3.31-3.41-3.31-4.87,0-5.47,4-12.39,8.73-15.13a6.86,6.86,0,0,1,3.32-1c3,0,3.3,3.41,3.3,4.88,0,5.46-4,12.39-8.73,15.12A6.86,6.86,0,0,1,94.21,327.28ZM103,306.83a6.29,6.29,0,0,0-3,1c-4.57,2.63-8.43,9.32-8.43,14.6,0,1.28.26,4.27,2.71,4.27a6.23,6.23,0,0,0,3-1c4.57-2.64,8.43-9.33,8.43-14.6C105.65,309.82,105.39,306.83,103,306.83Z" style="fill:#fff"></path><path d="M177.69,357.23c-11,0-18.14-9-18.14-22.81,0-19.17,13.5-42.55,30.1-52.14,4.88-2.81,9.59-4.24,14-4.24,11,0,18.15,8.95,18.15,22.81,0,19.17-13.51,42.55-30.1,52.14-4.88,2.81-9.6,4.24-14,4.24Z" style="fill:#6B2B87"></path><path d="M161.6,334.42c0,18.54,13,26.06,29.08,16.79s29.07-31.82,29.07-50.36-13-26.06-29.07-16.79S161.6,315.88,161.6,334.42Z" style="fill:#263238"></path><path d="M217.29,299.43c0-8.55-2.77-14.74-7.33-18-5.13-2.3-11.88-1.6-19.28,2.67-16.06,9.27-29.08,31.82-29.08,50.36,0,8.55,2.78,14.74,7.33,18,5.13,2.3,11.89,1.6,19.29-2.67C204.27,340.52,217.29,318,217.29,299.43Z" style="fill:#37474f"></path><ellipse cx="188.22" cy="316.22" rx="27.95" ry="16.14" transform="translate(-179.74 321.11) rotate(-60)" style="fill:#6B2B87"></ellipse><path d="M179.39,339.68c-5.56,0-8.88-4.51-8.88-12.05,0-11.93,8.41-26.49,18.74-32.46a16.09,16.09,0,0,1,7.8-2.42c5.56,0,8.88,4.51,8.88,12.05,0,11.93-8.41,26.49-18.74,32.46a16.12,16.12,0,0,1-7.8,2.42Z" style="fill:#37474f"></path><path d="M181.08,335.18c-4.49,0-7.18-3.64-7.18-9.74,0-9.64,6.8-21.41,15.15-26.24a13,13,0,0,1,6.3-1.95c4.5,0,7.18,3.64,7.18,9.74,0,9.64-6.79,21.41-15.14,26.24a13,13,0,0,1-6.31,1.95Z" style="fill:#455a64"></path><path d="M165.35,329.42a23.1,23.1,0,0,0,1.88,8.8,11.7,11.7,0,0,0,6.07,6.19,13.6,13.6,0,0,0,8.67.33,26,26,0,0,0,8-3.86,45.11,45.11,0,0,0,12.27-13.06,49.36,49.36,0,0,0,4.2-8,40.36,40.36,0,0,0,2.56-8.71A42.05,42.05,0,0,1,203,328.24a47.44,47.44,0,0,1-5.48,7.37,39.73,39.73,0,0,1-6.89,6.12,27,27,0,0,1-8.38,3.92,14,14,0,0,1-9.21-.52,12.29,12.29,0,0,1-6.21-6.71A22,22,0,0,1,165.35,329.42Z" style="fill:#455a64"></path><path d="M164.88,342.85a13.86,13.86,0,0,0,5,4.87,12.82,12.82,0,0,0,6.66,1.62c4.66-.09,9.12-2,13-4.56A47,47,0,0,0,200,335.39a55.66,55.66,0,0,0,4.23-5.67,58.46,58.46,0,0,0,3.57-6.14,49.74,49.74,0,0,1-7.19,12.31,45.68,45.68,0,0,1-10.48,9.76,32.34,32.34,0,0,1-6.45,3.21,19.61,19.61,0,0,1-7.12,1.26,13.27,13.27,0,0,1-6.92-2A13.41,13.41,0,0,1,164.88,342.85Z" style="fill:#455a64"></path><path d="M146.29,312.47a3.67,3.67,0,0,0-3.68.37l-53.17,30.7a11.53,11.53,0,0,0-5.22,9v50.1A3.66,3.66,0,0,0,85.75,406l2.58,1.49a3.67,3.67,0,0,0,3.68-.37l53.17-30.7a11.51,11.51,0,0,0,5.21-9v-50.1a3.64,3.64,0,0,0-1.53-3.37C148.43,313.71,146.72,312.73,146.29,312.47Z" style="fill:#37474f"></path><path d="M92,345l53.17-30.7c2.88-1.66,5.21-.31,5.21,3v50.1a11.51,11.51,0,0,1-5.21,9L92,407.16c-2.88,1.67-5.22.32-5.22-3v-50.1A11.53,11.53,0,0,1,92,345Z" style="fill:#455a64"></path><path d="M90.4,354.05a8,8,0,0,1,3.41-5.9l53-30.58v49.86a8.08,8.08,0,0,1-3.41,5.91l-53,30.58Z" style="fill:#263238"></path><path d="M103.91,394.48a11.18,11.18,0,0,1,5.22-8.66l18.92-10.93c2.88-1.66,5.22-.48,5.22,2.64v2.83L103.92,397.3S103.92,397.6,103.91,394.48Z" style="fill:#455a64"></path><polygon points="96.58 388.83 140.61 363.41 140.61 364.82 96.58 390.24 96.58 388.83" style="fill:#455a64"></polygon><polygon points="140.61 325.27 121.04 336.57 121.04 342.22 140.61 330.92 140.61 325.27" style="fill:#6B2B87"></polygon><polygon points="96.49 359.22 140.61 333.75 140.61 360.58 96.58 386 96.49 359.22" style="fill:#455a64"></polygon><path d="M124.84,357c0,3.13,2.2,4.39,4.9,2.83a10.83,10.83,0,0,0,4.89-8.48c0-3.12-2.19-4.39-4.89-2.83A10.85,10.85,0,0,0,124.84,357Z" style="fill:#37474f"></path><path d="M130.82,352.27a1.06,1.06,0,0,0-1.08.11,3.38,3.38,0,0,0-1.53,2.65,1.08,1.08,0,0,0,.44,1l4.82,2.79a1.08,1.08,0,0,0,1.08-.11,3.38,3.38,0,0,0,1.53-2.66,1.07,1.07,0,0,0-.45-1Z" style="fill:#263238"></path><path d="M133,357.81c0,1,.69,1.38,1.54.89a3.38,3.38,0,0,0,1.53-2.66c0-1-.68-1.37-1.53-.88A3.39,3.39,0,0,0,133,357.81Z" style="fill:#37474f"></path><path d="M102.58,369.82c0,3.13,2.19,4.39,4.89,2.83a10.81,10.81,0,0,0,4.9-8.48c0-3.12-2.19-4.39-4.9-2.82A10.81,10.81,0,0,0,102.58,369.82Z" style="fill:#37474f"></path><path d="M108.56,365.12a1.08,1.08,0,0,0-1.09.11,3.41,3.41,0,0,0-1.53,2.65,1.07,1.07,0,0,0,.45,1l4.81,2.79a1.08,1.08,0,0,0,1.08-.11,3.39,3.39,0,0,0,1.54-2.66,1.09,1.09,0,0,0-.45-1Z" style="fill:#263238"></path><path d="M110.75,370.67c0,1,.69,1.37,1.53.88a3.39,3.39,0,0,0,1.54-2.66c0-1-.69-1.37-1.54-.88A3.41,3.41,0,0,0,110.75,370.67Z" style="fill:#37474f"></path><polygon points="72.52 269.64 85.14 276.93 155.23 236.48 142.61 229.19 72.52 269.64" style="opacity:0.2"></polygon><polygon points="142.61 229.19 142.61 240.49 145.44 242.13 155.23 236.48 142.61 229.19" style="opacity:0.2"></polygon><path d="M152,238.38l-9.34,5.38-.69.4-8.7-5.08.89-4.52a6.28,6.28,0,0,1,2.62-3.69l3.78-2.22a4.71,4.71,0,0,1,4.28,0l3.78,2.22a6.26,6.26,0,0,1,2.63,3.69Z" style="fill:#37474f"></path><path d="M144.76,235.56a4.1,4.1,0,0,0-2.15,3.61v4.59l-.69.4-8.7-5.08.89-4.52a6.28,6.28,0,0,1,2.62-3.69Z" style="fill:#263238"></path><path d="M140.51,228.66l-3.77,2.21a1.32,1.32,0,0,0,0,2.5l3.73,2.18a4.73,4.73,0,0,0,4.29,0l3.8-2.19a1.31,1.31,0,0,0,0-2.49l-3.78-2.22A4.68,4.68,0,0,0,140.51,228.66Z" style="fill:#455a64"></path><path d="M140.59,244.93l-9.34,5.39-.69.39-8.7-5.08.9-4.52a6.28,6.28,0,0,1,2.62-3.69l3.78-2.21a4.63,4.63,0,0,1,4.27,0l3.78,2.21a6.26,6.26,0,0,1,2.63,3.69Z" style="fill:#ebebeb"></path><path d="M133.4,242.11a4.13,4.13,0,0,0-2.15,3.61v4.6l-.69.39-8.7-5.08.9-4.52a6.28,6.28,0,0,1,2.62-3.69Z" style="fill:#e0e0e0"></path><path d="M129.16,235.21l-3.78,2.21a1.33,1.33,0,0,0,0,2.5l3.73,2.18a4.72,4.72,0,0,0,4.3,0l3.8-2.19a1.32,1.32,0,0,0,0-2.49l-3.78-2.21A4.65,4.65,0,0,0,129.16,235.21Z" style="fill:#fafafa"></path><path d="M129.24,251.48l-9.35,5.39-.68.4-8.7-5.08.89-4.53A6.35,6.35,0,0,1,114,244l3.78-2.21a4.69,4.69,0,0,1,4.27,0l3.78,2.21a6.27,6.27,0,0,1,2.63,3.7Z" style="fill:#ebebeb"></path><path d="M122,248.67a4.12,4.12,0,0,0-2.15,3.61v4.59l-.68.4-8.7-5.08.89-4.53A6.35,6.35,0,0,1,114,244Z" style="fill:#e0e0e0"></path><path d="M117.8,241.77,114,244a1.33,1.33,0,0,0,0,2.5l3.74,2.17a4.73,4.73,0,0,0,4.29,0l3.8-2.19a1.32,1.32,0,0,0,0-2.5l-3.78-2.21A4.68,4.68,0,0,0,117.8,241.77Z" style="fill:#fafafa"></path><path d="M117.88,258l-9.35,5.39-.68.39-8.7-5.08.89-4.52a6.28,6.28,0,0,1,2.62-3.69l3.78-2.21a4.65,4.65,0,0,1,4.28,0l3.78,2.21a6.26,6.26,0,0,1,2.63,3.69Z" style="fill:#ebebeb"></path><path d="M110.69,255.22a4.12,4.12,0,0,0-2.16,3.61v4.6l-.68.39-8.7-5.08.89-4.52a6.28,6.28,0,0,1,2.62-3.69Z" style="fill:#e0e0e0"></path><path d="M106.44,248.32l-3.78,2.21a1.33,1.33,0,0,0,0,2.5l3.74,2.18a4.73,4.73,0,0,0,4.29,0l3.8-2.19a1.32,1.32,0,0,0,0-2.49l-3.78-2.22A4.68,4.68,0,0,0,106.44,248.32Z" style="fill:#fafafa"></path><path d="M106.52,264.59,97.18,270l-.69.4-8.7-5.08.9-4.53a6.26,6.26,0,0,1,2.61-3.69l3.78-2.21a4.71,4.71,0,0,1,4.28,0l3.78,2.21a6.29,6.29,0,0,1,2.63,3.69Z" style="fill:#ebebeb"></path><path d="M99.33,261.78a4.1,4.1,0,0,0-2.15,3.61V270l-.69.4-8.7-5.08.9-4.53a6.26,6.26,0,0,1,2.61-3.69Z" style="fill:#e0e0e0"></path><path d="M95.08,254.88l-3.77,2.2a1.33,1.33,0,0,0,0,2.51L95,261.76a4.7,4.7,0,0,0,4.29,0l3.81-2.18a1.32,1.32,0,0,0,0-2.5l-3.78-2.21A4.65,4.65,0,0,0,95.08,254.88Z" style="fill:#fafafa"></path><path d="M95.17,271.15l-9.35,5.38-.68.4-8.7-5.08.89-4.52A6.28,6.28,0,0,1,80,263.64l3.78-2.22a4.69,4.69,0,0,1,4.27,0l3.78,2.22a6.26,6.26,0,0,1,2.63,3.69Z" style="fill:#ebebeb"></path><path d="M88,268.33a4.1,4.1,0,0,0-2.15,3.61v4.59l-.68.4-8.7-5.08.89-4.52A6.28,6.28,0,0,1,80,263.64Z" style="fill:#e0e0e0"></path><path d="M83.73,261.43,80,263.64a1.33,1.33,0,0,0,0,2.5l3.74,2.18a4.73,4.73,0,0,0,4.29,0l3.8-2.19a1.32,1.32,0,0,0,0-2.49L88,261.43A4.68,4.68,0,0,0,83.73,261.43Z" style="fill:#fafafa"></path><path d="M166.22,223.54a6.31,6.31,0,0,0,5.74,0c1.59-.91,1.59-2.4,0-3.31a6.31,6.31,0,0,0-5.74,0C164.63,221.14,164.63,222.63,166.22,223.54Z" style="fill:#263238"></path><path d="M172,222.36a6.31,6.31,0,0,0-5.74,0,2.77,2.77,0,0,0-.73.59,2.77,2.77,0,0,0,.73.59,6.31,6.31,0,0,0,5.74,0,2.77,2.77,0,0,0,.73-.59A2.77,2.77,0,0,0,172,222.36Z" style="fill:#37474f"></path><path d="M176,217.89a6.33,6.33,0,0,0,5.75,0c1.58-.91,1.58-2.4,0-3.31a6.33,6.33,0,0,0-5.75,0C174.42,215.49,174.42,217,176,217.89Z" style="fill:#263238"></path><path d="M181.75,216.71a6.33,6.33,0,0,0-5.75,0,2.74,2.74,0,0,0-.72.59,2.56,2.56,0,0,0,.72.59,6.33,6.33,0,0,0,5.75,0,2.88,2.88,0,0,0,.72-.59A3.12,3.12,0,0,0,181.75,216.71Z" style="fill:#37474f"></path><path d="M80.14,160.09a4.5,4.5,0,0,0-4-.67,1.44,1.44,0,0,0-1,1h0L57.65,264h0a1.44,1.44,0,0,0,.64,1.3,4.47,4.47,0,0,0,4,.67,1.43,1.43,0,0,0,1-1h0L80.78,161.39h0A1.44,1.44,0,0,0,80.14,160.09Z" style="fill:#37474f"></path><path d="M75.75,161.73a4.49,4.49,0,0,0,4,.68,1.24,1.24,0,0,0,.38-2.32,4.5,4.5,0,0,0-4-.67A1.24,1.24,0,0,0,75.75,161.73Z" style="fill:#455a64"></path><path d="M87.33,113.32a3,3,0,0,0-2.67-.45,1,1,0,0,0-.69.68h0l-7.88,46.87h0a.94.94,0,0,0,.42.86,3,3,0,0,0,2.67.45,1,1,0,0,0,.69-.68h0l7.88-46.86h0A1,1,0,0,0,87.33,113.32Z" style="fill:#37474f"></path><path d="M84.4,114.41a3,3,0,0,0,2.67.45.82.82,0,0,0,.26-1.54,3,3,0,0,0-2.67-.45A.82.82,0,0,0,84.4,114.41Z" style="fill:#455a64"></path><path d="M95.16,64a2,2,0,0,0-1.76-.29.62.62,0,0,0-.45.44h0l-8.32,49.4h0a.62.62,0,0,0,.28.57,2,2,0,0,0,1.77.3.65.65,0,0,0,.45-.45h0l8.31-49.4h0A.63.63,0,0,0,95.16,64Z" style="fill:#37474f"></path><path d="M93.23,64.72A1.94,1.94,0,0,0,95,65a.55.55,0,0,0,.17-1,2,2,0,0,0-1.76-.29C92.86,63.91,92.79,64.36,93.23,64.72Z" style="fill:#455a64"></path><circle cx="94.31" cy="63.64" r="2.53" transform="translate(7.19 136.82) rotate(-74.04)" style="fill:#455a64"></circle><path d="M206.41,145.94c-.4-5.56-3.17-8.89-7.41-8.89a12.23,12.23,0,0,0-5.94,1.82L80.34,204a1.48,1.48,0,0,0-.7,1.42,4.75,4.75,0,0,0,2.12,3.69,1.62,1.62,0,0,0,1.44.19l112.87-65.17a6.2,6.2,0,0,1,2.93-1c1.13,0,1.37,3,1.4,3.3l4,55.38,6.3,3.62Z" style="fill:#e0e0e0"></path><path d="M178.81,145.73a3,3,0,0,0-3-.3l-97.06,56a3,3,0,0,0-1.23,2.72,9.27,9.27,0,0,0,4.21,7.28,2.9,2.9,0,0,0,3,.27c.72-.43,96.24-55.58,97-56A2.91,2.91,0,0,0,183,153,9.3,9.3,0,0,0,178.81,145.73Z" style="fill:#455a64"></path><path d="M81.77,201.75A9.29,9.29,0,0,1,86,209c0,2.68-1.88,3.77-4.2,2.42a9.27,9.27,0,0,1-4.21-7.28C77.56,201.49,79.44,200.41,81.77,201.75Z" style="fill:#37474f"></path><path d="M81.76,204.14a1.54,1.54,0,0,0-1.42-.18L62.91,214c-8,4.62-15,15.9-15.64,25.13l-5.09,76.27L42,318l5.81,3.36.63-9.57,4.82-72.24c.47-7.21,6.38-16.7,12.64-20.32l17.28-10a1.45,1.45,0,0,0,.69-1.42A4.73,4.73,0,0,0,81.76,204.14Z" style="fill:#e0e0e0"></path><path d="M44.88,311.78c-2.07-1.2-4-1.3-5.42-.49l-2.23,1.29A5.1,5.1,0,0,0,35,316.92c-.3,4.43,2.69,9.89,6.67,12.18,2.08,1.21,4,1.3,5.43.48l2.23-1.28A5.12,5.12,0,0,0,51.55,324C51.84,319.53,48.86,314.07,44.88,311.78Z" style="fill:#455a64"></path><path d="M49.35,325.24c.29-4.44-2.7-9.89-6.67-12.19s-7.44-.56-7.73,3.87,2.69,9.89,6.67,12.18S49.06,329.67,49.35,325.24Z" style="fill:#37474f"></path></g></g><g id="freepik--Character--inject-123"><g id="freepik--character--inject-123"><g id="freepik--Chair--inject-123"><path d="M350.83,367.64l7.48-67.1,6.39.21L354,367.91h0a.89.89,0,0,1-.47.54,2.51,2.51,0,0,1-2.28-.08.76.76,0,0,1-.44-.72Z" style="fill:#263238"></path><path d="M358.31,300.54l6.39.21-2.91,12.17a24.72,24.72,0,0,1-3.63-2.05c-.83-.54-1.52-1.26-1.56-1.58Z" style="fill:#263238"></path><path d="M441.08,286.45l6.38-.43,15,70h0a.76.76,0,0,1-.41.73,2.55,2.55,0,0,1-2.28.15.85.85,0,0,1-.49-.52h0Z" style="fill:#37474f"></path><path d="M447.46,286l3.63,17a26.6,26.6,0,0,1-4.83,3.42l-5.18-20Z" style="fill:#263238"></path><path d="M399.2,395.43l0-75.77,6.35-.75-3.17,76.3h0a.85.85,0,0,1-.39.6,2.54,2.54,0,0,1-2.27.27.78.78,0,0,1-.54-.65Z" style="fill:#37474f"></path><path d="M399.23,329.25v-9.59l6.35-.75-.43,10.37A11.85,11.85,0,0,1,399.23,329.25Z" style="fill:#263238"></path><path d="M404.88,268.52l6.38-.43,15,71.41h0a.8.8,0,0,1-.42.74,2.54,2.54,0,0,1-2.28.15.9.9,0,0,1-.49-.52h0Z" style="fill:#263238"></path><g id="freepik--chair--inject-123"><path d="M454.74,214.7a36.23,36.23,0,0,1,3.3,11c1.3,8.54.26,36.56-.66,49.12h0c-1.14,21-4.23,21.2-8.51,25-7.35,6.5-28.85,19.72-36,23.11-13,6.14-24.43-1.22-32.83-4.69a189.41,189.41,0,0,1-22.39-11.32c-2.12-1.34-3.28-2.76-3.36-4.34,0-.62-.22-3.18-.27-3.83-.12-2,1.5-4.28,5.07-6.95,6.59-4.93,30.51-21.12,39.8-27.11a.1.1,0,0,1,.08-.08c7.12-5,9.54-35.94,13.59-52.58.09-.35.17-.7.27-1s.14-.52.21-.78c.27-.91.55-1.74.85-2.5" style="fill:#6B2B87"></path><path d="M354,298.77c-.12-2,1.5-4.28,5.07-6.95,6.59-4.93,30.51-21.12,39.8-27.11a.1.1,0,0,1,.08-.08c7.12-5,9.54-35.94,13.59-52.58,0-.15.32-1.43.88-3.07,0-.07.05-.14.08-.22s.16-.45.24-.68.09-.24.13-.34h0a15.62,15.62,0,0,1,3.1-5.19,7.38,7.38,0,0,1,1.6-1.29c.8-.53,2.49-1.62,2.91-1.91,4.84-3.35,11.7-.17,20.24,3.79,5.32,2.47,9.91,5.51,13,11.56h0a36.23,36.23,0,0,1,3.3,11c1.3,8.54.26,36.56-.66,49.12h0c-1.14,21-4.23,21.2-8.51,25-7.35,6.5-28.85,19.72-36,23.11-13,6.14-24.43-1.22-32.83-4.69a189.41,189.41,0,0,1-22.39-11.32c-2.12-1.34-3.28-2.76-3.36-4.34C354.25,302,354.07,299.42,354,298.77Z" style="fill:#6B2B87"></path><path d="M354,298.77c-.12-2,1.5-4.28,5.07-6.95,6.59-4.93,30.51-21.12,39.8-27.11a.1.1,0,0,1,.08-.08c7.12-5,9.54-35.94,13.59-52.58,0-.15.32-1.43.88-3.07,0-.07.05-.14.08-.22s.16-.45.24-.68.09-.24.13-.34h0a15.62,15.62,0,0,1,3.1-5.19,7.38,7.38,0,0,1,1.6-1.29c.8-.53,2.49-1.62,2.91-1.91,4.84-3.35,11.7-.17,20.24,3.79,5.32,2.47,9.91,5.51,13,11.56h0a36.23,36.23,0,0,1,3.3,11c1.3,8.54.26,36.56-.66,49.12h0c-1.14,21-4.23,21.2-8.51,25-7.35,6.5-28.85,19.72-36,23.11-13,6.14-24.43-1.22-32.83-4.69a189.41,189.41,0,0,1-22.39-11.32c-2.12-1.34-3.28-2.76-3.36-4.34C354.25,302,354.07,299.42,354,298.77Z" style="fill:#fff;opacity:0.25"></path><path d="M379.78,314.39a188.32,188.32,0,0,1-22.38-11.32c-4.85-3-4.65-6.51,1.68-11.25,8.81-6.59,44.91-30.39,44.91-30.39s49.32,24.83,47.62,30.13-30,23.27-39,27.52C399.62,325.23,388.18,317.86,379.78,314.39Z" style="fill:#6B2B87"></path><path d="M379.78,314.39a188.32,188.32,0,0,1-22.38-11.32c-4.85-3-4.65-6.51,1.68-11.25,8.81-6.59,44.91-30.39,44.91-30.39s49.32,24.83,47.62,30.13-30,23.27-39,27.52C399.62,325.23,388.18,317.86,379.78,314.39Z" style="fill:#fff;opacity:0.6000000000000001"></path><path d="M418.6,201.26c4.82-3,11.54.17,19.87,4,5.33,2.48,9.93,5.53,13,11.6l3.26-2.19c-3.08-6-7.67-9.09-13-11.56-8.54-4-15.4-7.14-20.24-3.79C421.09,199.64,419.4,200.73,418.6,201.26Z" style="fill:#6B2B87"></path><path d="M418.6,201.26c4.82-3,11.54.17,19.87,4,5.33,2.48,9.93,5.53,13,11.6l3.26-2.19c-3.08-6-7.67-9.09-13-11.56-8.54-4-15.4-7.14-20.24-3.79C421.09,199.64,419.4,200.73,418.6,201.26Z" style="fill:#fff;opacity:0.5"></path><path d="M399,264.63s4.94,1.26,22.77,8.59c7.31,3,12.21,6.2,19.12,9.93,10.17,5.49,9.74,10.1,9.74,10.1,4.58-4.35,6.3-51.32,4.16-65.36a35.54,35.54,0,0,0-3.57-11.56c-.14-.26-.29-.53-.45-.8s-.21-.36-.32-.53-.11-.17-.16-.25a22.64,22.64,0,0,0-1.36-1.88c-.12-.16-.24-.3-.36-.44s-.24-.29-.37-.42l-.37-.41-.32-.33a21.37,21.37,0,0,0-1.88-1.7l-.49-.4a30.89,30.89,0,0,0-3.25-2.14l-.52-.29c-.23-.13-.46-.26-.71-.38s-.39-.21-.59-.3l-1.57-.77c-6.37-2.94-11.79-5.47-16.15-5.18a8.15,8.15,0,0,0-5.32,2.44c-3,3.06-4.35,9.15-4.44,9.5C408.51,228.69,406.09,259.63,399,264.63Z" style="fill:#6B2B87"></path><path d="M399,264.63s4.94,1.26,22.77,8.59c7.31,3,12.21,6.2,19.12,9.93,10.17,5.49,9.74,10.1,9.74,10.1,4.58-4.35,6.3-51.32,4.16-65.36a35.54,35.54,0,0,0-3.57-11.56c-.14-.26-.29-.53-.45-.8s-.21-.36-.32-.53-.11-.17-.16-.25a22.64,22.64,0,0,0-1.36-1.88c-.12-.16-.24-.3-.36-.44s-.24-.29-.37-.42l-.37-.41-.32-.33a21.37,21.37,0,0,0-1.88-1.7l-.49-.4a30.89,30.89,0,0,0-3.25-2.14l-.52-.29c-.23-.13-.46-.26-.71-.38s-.39-.21-.59-.3l-1.57-.77c-6.37-2.94-11.79-5.47-16.15-5.18a8.15,8.15,0,0,0-5.32,2.44c-3,3.06-4.35,9.15-4.44,9.5C408.51,228.69,406.09,259.63,399,264.63Z" style="fill:#fff;opacity:0.4"></path></g></g><g id="freepik--character--inject-123"><g id="freepik--Bottom--inject-123"><path d="M367.79,334.56s6.33,12.95,7,18.19c.65,5.46,2.1,7.18,1.57,13.2-.11,1.32-.62,4-.72,5a1.57,1.57,0,0,0,1.54,1.85c2.41.33,6.06-4.4,7.61-9.39A144.79,144.79,0,0,0,388.31,346a7.44,7.44,0,0,0-1-3.79,11.09,11.09,0,0,0-1.23-1.91c-.94-2.33-1.63-6.84-2.5-9.93Z" style="fill:#f0997a"></path><path d="M393.3,350.67a5.69,5.69,0,0,1,.75,1.76c.13,1.09-2.09,4.85-3,6.23a8.74,8.74,0,0,0-1.36,6.34,15.2,15.2,0,0,1-3,10,24,24,0,0,1-11.42,8.62c-5.65,2.17-7.88-.59-7.88-.59s-2-2.66-1-3.87S393.3,350.67,393.3,350.67Z" style="fill:#37474f"></path><path d="M386.07,340.3c.18,0,.49-.09,1,.43.19.19,1.42,2.71,2.38,4s3.43,3.73,3.88,5.92c-1.05,4.37-4.86,7.62-5.19,11.7s-.09,8.77-6,14.13-12.22,6.3-14.6,5.15-2.34-3.63.54-8.52c3.06-5.2,4.62-16.11,4.62-16.12a33.92,33.92,0,0,0,.29-4.62,30.56,30.56,0,0,0-.73-4.5,3.38,3.38,0,0,1,.15-2.07,3.44,3.44,0,0,1,1.63-1.29,14.83,14.83,0,0,1,3.11-1.3,5.1,5.1,0,0,1,3.32.18c.74.33,1.36.91,2.14,1.17a3,3,0,0,0,3-.75,2.54,2.54,0,0,0,.63-2.86A6.55,6.55,0,0,0,386.07,340.3Z" style="fill:#6B2B87"></path><path d="M386.07,340.3c.18,0,.49-.09,1,.43.19.19,1.42,2.71,2.38,4s3.43,3.73,3.88,5.92c-1.05,4.37-4.86,7.62-5.19,11.7s-.09,8.77-6,14.13-12.22,6.3-14.6,5.15-2.34-3.63.54-8.52c3.06-5.2,4.62-16.11,4.62-16.12a33.92,33.92,0,0,0,.29-4.62,30.56,30.56,0,0,0-.73-4.5,3.38,3.38,0,0,1,.15-2.07,3.44,3.44,0,0,1,1.63-1.29,14.83,14.83,0,0,1,3.11-1.3,5.1,5.1,0,0,1,3.32.18c.74.33,1.36.91,2.14,1.17a3,3,0,0,0,3-.75,2.54,2.54,0,0,0,.63-2.86A6.55,6.55,0,0,0,386.07,340.3Z" style="opacity:0.4"></path><path d="M385.51,372.29a9.9,9.9,0,0,0-9.32-4.25c-6.59.46-8.64,4-9.51,6-1,2.43-2,6.77.81,7.81,3,1.12,6.4.48,11.57-2.56S385.51,372.29,385.51,372.29Z" style="fill:#fafafa"></path><path d="M383,352.52a.64.64,0,0,1-.6,0c-1.05-.45-6.51-1.21-9.45,1.91-.43-.3-.39-.9.07-1.77,3.52-2.58,8.69-1.89,10-1.34a.63.63,0,0,1,.31.86A.65.65,0,0,1,383,352.52Z" style="fill:#fafafa"></path><path d="M372.5,358.36a2,2,0,0,1,.26-1.84,12.35,12.35,0,0,1,9.51-1,.63.63,0,0,1,.31.86.67.67,0,0,1-.29.31.7.7,0,0,1-.6,0C380.67,356.26,375.49,355.54,372.5,358.36Z" style="fill:#fafafa"></path><path d="M370.41,367.44a3.77,3.77,0,0,1,.68-2.44c3.51-2.45,8.56-1.77,9.81-1.23a.63.63,0,0,1,.32.86.76.76,0,0,1-.29.3.67.67,0,0,1-.6,0C379.22,364.5,373.2,363.68,370.41,367.44Z" style="fill:#fafafa"></path><path d="M381.61,360.8a.67.67,0,0,1-.6,0c-1-.44-6.39-1.18-9.35,1.81a2.29,2.29,0,0,1,.41-2,12.36,12.36,0,0,1,9.51-1,.63.63,0,0,1,.32.86A.79.79,0,0,1,381.61,360.8Z" style="fill:#fafafa"></path><path d="M363.36,352s-2.37,16.34-5.24,22.72-4.35,9.46-8.39,14.33c-.88,1.06-2.89,3-3.61,3.89a1.63,1.63,0,0,0,.22,2.51c1.88,1.72,9.69,2,14-1.39s8.14-10.42,10.69-13.11c1-1,1.86-2,2.72-3.14s.57-2,.62-3.2c0-.56-.09-2.09-.09-2.09.54-2.75,2.07-7.09,2.88-9.78Z" style="fill:#ffbda7"></path><path d="M376.06,384.75a5.82,5.82,0,0,1-.16,2c-.41,1.07-4.31,3.46-5.8,4.3a9.15,9.15,0,0,0-4.37,5.2c-1.36,3.41-4.28,6-7.68,7.76a25.17,25.17,0,0,1-14.79,2.37c-6.28-.77-7-4.41-7-4.41s-.52-3.43,1-4.06S376.06,384.75,376.06,384.75Z" style="fill:#37474f"></path><path d="M374.48,371.61c.17.07.49.16.68.87.08.27,0,3.21.23,4.89s1.34,5.13.67,7.38c-3.11,3.52-8.22,4.65-10.53,8.26s-4.38,8.07-12.43,10.14-14.39-.17-16-2.4-.39-4.5,4.68-7.61c5.37-3.3,12.17-12.63,12.17-12.63a37.11,37.11,0,0,0,2.53-4.13,30,30,0,0,0,1.53-4.52,3.56,3.56,0,0,1,1.16-1.84,3.7,3.7,0,0,1,2.14-.4,15.83,15.83,0,0,1,3.51.33,5.38,5.38,0,0,1,3,1.79c.52.68.82,1.51,1.4,2.13a3.07,3.07,0,0,0,3.15.78,2.63,2.63,0,0,0,2-2.32A7.27,7.27,0,0,0,374.48,371.61Z" style="fill:#6B2B87"></path><path d="M374.48,371.61c.17.07.49.16.68.87.08.27,0,3.21.23,4.89s1.34,5.13.67,7.38c-3.11,3.52-8.22,4.65-10.53,8.26s-4.38,8.07-12.43,10.14-14.39-.17-16-2.4-.39-4.5,4.68-7.61c5.37-3.3,12.17-12.63,12.17-12.63a37.11,37.11,0,0,0,2.53-4.13,30,30,0,0,0,1.53-4.52,3.56,3.56,0,0,1,1.16-1.84,3.7,3.7,0,0,1,2.14-.4,15.83,15.83,0,0,1,3.51.33,5.38,5.38,0,0,1,3,1.79c.52.68.82,1.51,1.4,2.13a3.07,3.07,0,0,0,3.15.78,2.63,2.63,0,0,0,2-2.32A7.27,7.27,0,0,0,374.48,371.61Z" style="opacity:0.4"></path><path d="M358.27,400.91a10.38,10.38,0,0,0-6.53-8.51c-6.32-2.79-9.94-.56-11.75.9-2.14,1.74-5.16,5.28-3.08,7.61,2.25,2.52,5.68,3.59,12,3.31S358.27,400.91,358.27,400.91Z" style="fill:#fafafa"></path><path d="M365.61,381.39a.69.69,0,0,1-.57-.26c-.75-.93-5.43-4.32-9.68-2.87-.25-.49.09-1,.95-1.6,4.51-.66,8.94,2.52,9.85,3.64a.66.66,0,0,1-.13.95A.71.71,0,0,1,365.61,381.39Z" style="fill:#fafafa"></path><path d="M353.07,381.65a2.15,2.15,0,0,1,1.14-1.58c4.31-.33,8.42,2.64,9.29,3.72a.66.66,0,0,1-.13.95.7.7,0,0,1-.41.14.69.69,0,0,1-.58-.26C361.65,383.72,357.21,380.51,353.07,381.65Z" style="fill:#fafafa"></path><path d="M346.69,389a3.87,3.87,0,0,1,1.82-1.92c4.45-.55,8.78,2.56,9.68,3.67a.66.66,0,0,1-.13,1,.73.73,0,0,1-.42.14.67.67,0,0,1-.57-.26C356.27,390.62,351.11,386.9,346.69,389Z" style="fill:#fafafa"></path><path d="M360.3,388.37a.7.7,0,0,1-.58-.26c-.74-.92-5.32-4.23-9.53-2.91a2.43,2.43,0,0,1,1.36-1.64c4.31-.33,8.42,2.64,9.3,3.72a.67.67,0,0,1-.13,1A.75.75,0,0,1,360.3,388.37Z" style="fill:#fafafa"></path><path d="M394.38,256.13c-6.62,5-25.85,19.77-35.19,28.62-2.7,2.56-5.94,5.13-4.65,13.67,1.48,9.77,11,42.7,11,42.7l57.24-70.52Z" style="fill:#455a64"></path><path d="M367,330.67c8.44-7.23,38.57-53.07,38.57-53.07l-1.16-.24c-6.2-3.06-8-10.83-8-10.83-.91,3.46,1,8.26,3,11-2.15,1.9-15.75,13.09-24.18,19.92-2.12,1.72-4.28,3.83-5,7.69C368.69,314.4,366.79,328.81,367,330.67Z" style="fill:#37474f"></path><path d="M397.39,258.46h0l49.76,6.44c.88,9.89-2.55,17.67-4.54,20.53-3,4.26-9.47,9.86-21.59,16.37-12.32,6.62-23.25,12.82-26.13,14.26-2.16,1.09-3.35,5.74-4.22,11.43-.91,6-1,9.78-6.59,22.38-5.51,12.35-7.38,15.22-7.38,15.22s-8.9,1.11-14.92-4c0,0,7.21-42.08,8.78-49.66.87-4.23.84-6.45,6-11.19,4.4-4.06,27.88-22.91,27.88-22.91S392.49,270.11,397.39,258.46Z" style="fill:#455a64"></path><path d="M440.92,264.68l-1,0c.08,6,.16,12.23-6.56,19.2-2-.44-3.35-1.3-4-2.57-.8-1.62-.45-4,1-6.86,1.78-3.5,5.55-12,2.24-14.85l-.66.76c1.9,1.66,1,6.89-2.47,13.64-1.62,3.2-2,5.81-1,7.75a5.93,5.93,0,0,0,4,3,52.2,52.2,0,0,1-9.08,6.84c-5.66,3.48-11.75,6.91-17.12,9.93-9.58,5.39-17.15,9.65-18.52,12-1.06,1.82-1.65,6-2.4,11.34A127,127,0,0,1,382.16,342c-2.34,8.14-6.85,18.41-9,23.16.38,0,.74,0,1.08,0,2.23-4.93,6.59-14.93,8.9-22.92A132.2,132.2,0,0,0,386.4,325c.71-5,1.32-9.34,2.28-11,1.22-2.1,9.06-6.51,18.14-11.62,5.38-3,11.48-6.46,17.15-9.94C441.15,281.87,441,273.13,440.92,264.68Z" style="fill:#37474f"></path></g><g id="freepik--Top--inject-123"><path d="M394.23,199a8.26,8.26,0,0,1-.14-1c-.42-4.68,2.25-9.29,6.08-12,3.43-2.45,7.08-4.31,10.06-7.36l-9.47-5.4C395,170.33,395,162.92,396.3,159c2.79-8.7,12-12.22,17.74-12.72,10.89-1,16.32,1.7,17.62,7.31,4-.45,10.27,3.4,11.35,15.57a23.24,23.24,0,0,0,1.56,6.94,9.69,9.69,0,0,0,3.84,4.51c3.24,2.26,7.18,3.93,9.41,7.36a10,10,0,0,1-2.21,13.37,1,1,0,0,0-.38.45.91.91,0,0,0,.08.56A28.61,28.61,0,0,1,456.9,208c.87,6.16-2.42,12.59-8.36,14.8a15.51,15.51,0,0,1-13.05-1.4,5.48,5.48,0,0,0-3-1.15,5.61,5.61,0,0,0-2,.74c-6.58,3.28-14.66,1.82-21.21-1.52a11.82,11.82,0,0,1-5.18-4.33c-1.37-2.44-1.13-5.42-.84-8.2C398.88,207,395.08,203.23,394.23,199Z" style="fill:#263238"></path><path d="M336.67,183.32a4.43,4.43,0,0,1,2.59.22,28,28,0,0,1,3.69,2.1c1.9,1,4.94,2.76,7.14,2.67.45,0,1.37-.19.77-.75a18.2,18.2,0,0,1-2.3-2.26,3.9,3.9,0,0,1-.89-3,1.38,1.38,0,0,1,.46-.83c.37-.27.62-.1.91.12a8.93,8.93,0,0,0,1,.61l2.06,1.19c4,2.36,8,5.12,10.29,9.23.34.6,2.38,5.29,3.69,7.94,1.08,2.41,9.2,17.54,9.2,17.54L390,203.91c3.3-3.26,6.59-6.28,9.51-7.38,2.09-.79,5-1.84,5-1.84L399,219.74s-15.54,11.55-17.76,13.13c-3.29,2.36-9.86,6.16-13.09,2.13-4.38-5.47-6.48-13.34-8.5-19.35s-3.11-9.65-4.28-11.72-3.1-2.23-4.46-2.67a21.06,21.06,0,0,1-5.36-2.37,19.62,19.62,0,0,1-4.11-3.08,6.08,6.08,0,0,1-1.59-1.92,16.68,16.68,0,0,0-.37-2,22.14,22.14,0,0,1-1.23-2.1,7.15,7.15,0,0,1-.11-1.91,3.25,3.25,0,0,0-1.36-2.26,2.92,2.92,0,0,1-.89-1.06C335.61,183.81,336.09,183.48,336.67,183.32Z" style="fill:#ffbda7"></path><path d="M407.85,194.24c-5.62,0-8.17.83-11.4,3.31-3.54,2.72-21,17.93-21,17.93l-7-10.95s-.42,3-4.56,5.38c-4.36,2.49-5.93,1.63-5.93,1.63s3.15,13,6.67,19.38,5.52,8.48,11.34,5.9,25.7-17.23,25.7-17.23Z" style="fill:#6B2B87"></path><path d="M407.85,194.24c-5.62,0-8.17.83-11.4,3.31-3.54,2.72-21,17.93-21,17.93l-7-10.95s-.42,3-4.56,5.38c-4.36,2.49-5.93,1.63-5.93,1.63s3.15,13,6.67,19.38,5.52,8.48,11.34,5.9,25.7-17.23,25.7-17.23Z" style="opacity:0.30000000000000004"></path><path d="M352.58,190.23a14.23,14.23,0,0,0,4.88,6.21,5.88,5.88,0,0,1-3.64-1.89A5.51,5.51,0,0,1,352.58,190.23Z" style="fill:#f0997a"></path><path d="M375.45,215.48c2.46,4.31,3.2,9.84,2.67,12.66A14.8,14.8,0,0,0,377,214Z" style="opacity:0.30000000000000004"></path><g id="freepik--Chest--inject-123"><path d="M428.69,195.27s-1.75-.65-16.6-1l-4.24,0s-7.59,6-11.44,12-7.05,13.88,1,21.93l1.21,16-4.93,12.14s0,9.44,12.65,12.8c13.18,3.5,30.64-5.32,30.64-5.32s1.92,5.18,10.29,5.94c0,0,.23-8-1.16-12.53-2.64-8.64-5.37-10.65-5.58-14.82s1.75-13.57,1.75-13.57-4.08-3.63-5.53-12.44c-1.89-11.38.9-18.6.9-18.6Z" style="fill:#6B2B87"></path></g><g id="freepik--Head--inject-123"><path d="M431.37,181.94a5.53,5.53,0,0,0,4.87-2.27c2.43-3.09,2.47-6.07,1.1-7.95-1.13-1.54-3.7-2.4-5.37-1.18s-1.77,2.26-2.38,3.64-3.35,1.45-4.39-3.84c-1-4.93-2-9.44-4.64-11.52-3.88-3.09-7.89-2.26-9.19-.17-1.66-2.22-4-3-6.37-1.48s-4,5.35-4.21,14.86c-.18,9.69,2.31,16.37,4.64,17.83,1.76,1.11,3.9,1.22,7.53,1.12l0,5.65s-7.07,11.81,5.11,8.85a17.16,17.16,0,0,0,11.08-9l0-15.86S429.48,181.73,431.37,181.94Z" style="fill:#ffbda7"></path><path d="M415.59,171.82a1.59,1.59,0,1,0,.88-2.12A1.62,1.62,0,0,0,415.59,171.82Z" style="fill:#263238"></path><path d="M402.88,168.18l3.26-2a1.83,1.83,0,0,0-2.56-.7A2,2,0,0,0,402.88,168.18Z" style="fill:#263238"></path><path d="M407.12,171.91a1.59,1.59,0,1,1-3.06-.88,1.59,1.59,0,1,1,3.06.88Z" style="fill:#263238"></path><path d="M416.48,166l3.6,1.91a2,2,0,0,0-.77-2.73A2.14,2.14,0,0,0,416.48,166Z" style="fill:#263238"></path><path d="M417.35,179.7l-5.19,1.87a2.77,2.77,0,0,0,3.78,1.56A2.6,2.6,0,0,0,417.35,179.7Z" style="fill:#b16668"></path><path d="M414.43,183.34a2.9,2.9,0,0,1,2.82-2.68l.27,0a2.44,2.44,0,0,1-1.58,2.45A3.22,3.22,0,0,1,414.43,183.34Z" style="fill:#f0997a"></path><polygon points="412.13 168.62 411.73 178.16 406.45 176.55 412.13 168.62" style="fill:#f0997a"></polygon><path d="M413,191a33.72,33.72,0,0,0,10.14-2.64c1.17-.55,2.68-2.78,3.89-5.25,0,0-.72,4.79-3.22,6.53-3.81,2.65-10.8,3.55-10.8,3.55Z" style="fill:#f0997a"></path></g><path d="M461.08,237.77c-2.08-9-5.93-24-8.36-30.07s-6.55-8.65-15.08-9.95c-7.85,10.28-1.81,25.94-1.81,25.94l5.95,15.52-6.82,7.2s1.93,1.71,5.61,4.41c4.29,3.14,7.15,6.74,11.45,7.09s8.86-.57,9.67-2.12C463.61,252.47,462.87,245.5,461.08,237.77Z" style="fill:#6B2B87"></path><path d="M461.08,237.77c-2.08-9-5.93-24-8.36-30.07s-6.55-8.65-15.08-9.95c-7.85,10.28-1.81,25.94-1.81,25.94l5.95,15.52-6.82,7.2s1.93,1.71,5.61,4.41c4.29,3.14,7.15,6.74,11.45,7.09s8.86-.57,9.67-2.12C463.61,252.47,462.87,245.5,461.08,237.77Z" style="opacity:0.30000000000000004"></path><path d="M444.06,236.79c1.36,2,2.95,2.73,6.41,4.41,3.22,1.56,7,3.06,8.87,6.61-.52-3.27-2.28-4.91-6.3-7.24s-9.9-5.1-9.9-5.1Z" style="opacity:0.30000000000000004"></path><path d="M438.26,239.67c1.62-1.42,2-2.95,4.34-4.08s3.76-1,6.24-2,4.46-1.56,6.23-.85,1.42,1.73,0,2.5-3.83,1.73-5.53,2.8-3.33,1.64-3.48,3.69a92.38,92.38,0,0,0,.06,9.78c.21,3.47.7,6.3.42,6.66s-1.77.42-2.55-1.57-1.48-9.07-1.48-9.07-1,4.82-1.5,8.15-.78,5.88-.93,6.59-2.48,0-2.68-2.56.79-10,.79-10l-3.62,5.39c-1.42,2.13-3.2,5-3.76,5.74s-2-.71-1.49-2.7,3.41-6.72,3.41-6.72-3.33,3-3.9,3.32-2.21-.09-1.49-2.27c.49-1.45,1.5-2.33,4.19-5s2.75-3.88,3.61-5.13C436.28,240.63,437.08,240.7,438.26,239.67Z" style="fill:#ffbda7"></path><path d="M444.38,241.26c-2.56.93-4.93-.35-5.22-1C439.21,242,442.55,243.22,444.38,241.26Z" style="fill:#f0997a"></path><path d="M427.19,253.71a1.13,1.13,0,0,0,1.57,0c.67-.48,2.33-2.11,3.09-2.86s3.35-3.44,3.35-3.44l-2.47,4s-3.33,3-3.9,3.32A1.22,1.22,0,0,1,427.19,253.71Z" style="fill:#f0997a"></path><path d="M430.81,169l3.75.26a82.4,82.4,0,0,0,.87-13.23c-.06-2.23,0-3.7-2.5-5.51a12.36,12.36,0,0,0-4.65-2,8.24,8.24,0,0,1,3.14,4.25,12.65,12.65,0,0,1,.41,4.77C431.49,166.19,430.81,169,430.81,169Z" style="fill:#455a64"></path><path d="M427.29,179.64a12.51,12.51,0,0,1,2.66-11,5.22,5.22,0,0,1,2.3-1.51,3.12,3.12,0,0,1,1.68-.06l1.86.45a4.24,4.24,0,0,1,2.81,3.21,12.54,12.54,0,0,1-2.66,11,5.28,5.28,0,0,1-2.3,1.51,3.15,3.15,0,0,1-1.69.06l-1.83-.44A4.26,4.26,0,0,1,427.29,179.64Z" style="fill:#37474f"></path><path d="M433.64,183.24a5.28,5.28,0,0,0,2.3-1.51,12.54,12.54,0,0,0,2.66-11c-.74-2.51-2.51-3.75-4.5-3.16a5.37,5.37,0,0,0-2.31,1.52,12.56,12.56,0,0,0-2.66,11C429.87,182.59,431.64,183.83,433.64,183.24Z" style="fill:#263238"></path><path d="M429.52,180a12.07,12.07,0,0,1,2.56-10.61,3.83,3.83,0,0,1,3.6-1.45l.91.22a3.81,3.81,0,0,1,2.54,2.93,12.07,12.07,0,0,1-2.56,10.61,3.81,3.81,0,0,1-3.59,1.46l-.93-.22A3.85,3.85,0,0,1,429.52,180Z" style="fill:#f0f0f0"></path><path d="M433,169.59a12.1,12.1,0,0,0-2.56,10.61c1,3.33,3.73,4,6.13,1.47a12.07,12.07,0,0,0,2.56-10.61C438.15,167.73,435.4,167.06,433,169.59Z" style="fill:#e0e0e0"></path><path d="M430.44,180.2A12.1,12.1,0,0,1,433,169.59a3.84,3.84,0,0,1,3.59-1.46c.31.07.88.25,1.19.33a3.8,3.8,0,0,1,2.53,2.93A12,12,0,0,1,437.75,182a3.85,3.85,0,0,1-3.59,1.46c-.31-.08-.88-.26-1.19-.33A3.87,3.87,0,0,1,430.44,180.2Z" style="fill:#6B2B87"></path><path d="M434.19,169.91a12.07,12.07,0,0,0-2.57,10.61c1,3.34,3.73,4,6.13,1.48a12,12,0,0,0,2.56-10.61C439.33,168.05,436.58,167.39,434.19,169.91Z" style="fill:#fff;opacity:0.15"></path><path d="M435.7,173.05a6.34,6.34,0,0,0-1.35,5.58c.52,1.75,2,2.1,3.22.77a6.32,6.32,0,0,0,1.34-5.57C438.4,172.08,437,171.73,435.7,173.05Z" style="fill:#263238"></path><path d="M434.67,175.12l2.1,1.14,1-3.94a2,2,0,0,0-1.88.77A5.62,5.62,0,0,0,434.67,175.12Z" style="fill:#455a64"></path><path d="M434.49,178.66a2,2,0,0,0,1.33,1.54l.95-3.94-2.1-1.14A6.17,6.17,0,0,0,434.49,178.66Z" style="fill:#37474f"></path><path d="M435.82,180.2a2,2,0,0,0,1.89-.76,5.56,5.56,0,0,0,1.17-2l-2.11-1.15Z" style="fill:#455a64"></path><path d="M436.77,176.26l2.11,1.15a6.29,6.29,0,0,0,.18-3.55,2,2,0,0,0-1.34-1.54Z" style="fill:#37474f"></path></g></g></g></g><g id="freepik--Table--inject-123"><g id="freepik--table--inject-123"><g id="freepik--table--inject-123"><path d="M382.47,336.87l10.78,93.52h0a1.19,1.19,0,0,0,.71,1,3.75,3.75,0,0,0,3.42,0,1.19,1.19,0,0,0,.71-1h0l-8.77-93.52a1.69,1.69,0,0,0-1-1.4,5.38,5.38,0,0,0-4.85,0A1.71,1.71,0,0,0,382.47,336.87ZM262.8,430.39h0a1.21,1.21,0,0,0,.71,1,3.77,3.77,0,0,0,3.43,0,1.19,1.19,0,0,0,.7-1h0l10.78-93.52a1.71,1.71,0,0,0-1-1.4,5.38,5.38,0,0,0-4.85,0,1.71,1.71,0,0,0-1,1.4Zm63.93-79.11,1.1,101.26h0a1.32,1.32,0,0,0,.77,1.06,4.15,4.15,0,0,0,3.76,0,1.36,1.36,0,0,0,.78-1.06h0l1.1-101.26a1.88,1.88,0,0,0-1.1-1.54,5.87,5.87,0,0,0-5.32,0A1.88,1.88,0,0,0,326.73,351.28Z" style="fill:#455a64"></path><g id="freepik--table--inject-123"><path d="M327,378.45l-.3-27.17a1.88,1.88,0,0,1,1.1-1.54,5.87,5.87,0,0,1,5.32,0,1.88,1.88,0,0,1,1.1,1.54L334,378.45C331.66,378.51,329.32,378.51,327,378.45Z" style="fill:#37474f"></path><path d="M271.57,336.87a1.71,1.71,0,0,1,1-1.4,5.38,5.38,0,0,1,4.85,0,1.71,1.71,0,0,1,1,1.4l-3.32,28.82-1.52-.83c-1.52-.88-3-1.85-4.38-2.78Z" style="fill:#37474f"></path><path d="M383.47,335.47a5.38,5.38,0,0,1,4.85,0,1.69,1.69,0,0,1,1,1.4l2.37,25.24c-1.39.94-2.88,1.91-4.42,2.8-.48.28-1,.54-1.47.81l-3.33-28.85A1.71,1.71,0,0,1,383.47,335.47Z" style="fill:#37474f"></path><path d="M387.46,286.33c-31.5-18.19-82.58-18.19-114.09,0-15.75,9.1-23.61,21-23.61,32.94v2.31c0,11.92,7.86,23.84,23.61,32.94,31.51,18.19,82.59,18.19,114.1,0,15.75-9.1,23.61-21,23.61-32.94v-2.31C411.08,307.35,403.22,295.43,387.46,286.33Z" style="fill:#6B2B87"></path><g style="opacity:0.2"><path d="M387.46,286.33c-31.5-18.19-82.58-18.19-114.09,0-15.75,9.1-23.61,21-23.61,32.94v2.31c0,11.92,7.86,23.84,23.61,32.94,31.51,18.19,82.59,18.19,114.1,0,15.75-9.1,23.61-21,23.61-32.94v-2.31C411.08,307.35,403.22,295.43,387.46,286.33Z"></path></g><path d="M387.54,280.29c-31.51-18.19-82.59-18.19-114.1,0-15.75,9.09-23.61,21-23.61,32.93v4c0,11.92,7.86,23.84,23.62,32.94,31.5,18.19,82.58,18.19,114.09,0,15.75-9.1,23.61-22.67,23.61-34.59v-2.32C411.15,301.3,403.29,289.38,387.54,280.29Z" style="fill:#6B2B87"></path><g style="opacity:0.4"><path d="M387.54,280.29c-31.51-18.19-82.59-18.19-114.1,0-15.75,9.09-23.61,21-23.61,32.93v4c0,11.92,7.86,23.84,23.62,32.94,31.5,18.19,82.58,18.19,114.09,0,15.75-9.1,23.61-22.67,23.61-34.59v-2.32C411.15,301.3,403.29,289.38,387.54,280.29Z" style="fill:#fff"></path></g><g style="opacity:0.1"><path d="M387.54,280.29c-31.51-18.19-82.59-18.19-114.1,0-15.75,9.09-23.61,21-23.61,32.93v4c0,11.92,7.86,23.84,23.62,32.94,31.5,18.19,82.58,18.19,114.09,0,15.75-9.1,23.61-22.67,23.61-34.59v-2.32C411.15,301.3,403.29,289.38,387.54,280.29Z"></path></g><path d="M273.45,346.16c-31.51-18.19-31.51-47.69,0-65.87s82.59-18.19,114.1,0,31.5,47.68,0,65.87S305,364.34,273.45,346.16Z" style="fill:#6B2B87"></path><g style="opacity:0.85"><path d="M273.37,346.16c-31.5-18.19-31.5-47.69,0-65.87s82.59-18.19,114.09,0,31.51,47.68,0,65.87S304.88,364.34,273.37,346.16Z" style="fill:#fff"></path></g></g></g><g id="freepik--Laptop--inject-123"><path d="M274.88,317l32-18.5a1.83,1.83,0,0,1,1.84,0l55.59,32.1a.41.41,0,0,1,0,.71L332,350Z" style="opacity:0.2"></path><path d="M277.27,313.13v.72a3,3,0,0,0,1.48,2.57l51.78,29.89a2.87,2.87,0,0,0,1.47.39,3,3,0,0,0,1.49-.39l28.23-16.24a3,3,0,0,0,1.47-2.57v-1h0a.37.37,0,0,1-.19.32l-31,17.9Z" style="fill:#37474f"></path><path d="M277.27,313.13,308,295.41a1.75,1.75,0,0,1,1.77,0L363,326.16a.39.39,0,0,1,0,.68l-31,17.9Z" style="fill:#455a64"></path><polygon points="332.29 342.13 348.85 332.58 300.43 304.62 283.78 314.12 332.29 342.13" style="fill:#37474f"></polygon><polygon points="283.79 314.12 284.42 314.49 300.43 305.35 348.21 332.94 348.85 332.58 300.43 304.62 283.79 314.12" style="fill:#263238"></polygon><polygon points="340.43 315.56 340.12 315.74 332.01 320.42 317.57 312.09 317.27 311.92 325.69 307.06 340.43 315.56" style="fill:#263238"></polygon><polygon points="340.12 315.74 332.01 320.42 317.57 312.09 325.69 307.4 340.12 315.74" style="fill:#37474f"></polygon><path d="M332,344.73v2a3,3,0,0,1-1.48-.39l-51.78-29.89a3,3,0,0,1-1.48-2.57v-.72Z" style="fill:#263238"></path><path d="M331.17,345.17a3.49,3.49,0,0,1-3-.23L276.6,315.17a3.51,3.51,0,0,1-1.71-2.45l-5.64-33.65a3.79,3.79,0,0,1-.05-.58,3.52,3.52,0,0,1,1-2.49l53.57,30.93a2.62,2.62,0,0,1,1.26,1.82Z" style="fill:#37474f"></path><path d="M332,344.74l-.35.2a4.37,4.37,0,0,1-.49.23l-6.1-36.42a2.62,2.62,0,0,0-1.26-1.82L270.24,276a3.61,3.61,0,0,1,.72-.55l53.68,31a2.6,2.6,0,0,1,1.26,1.81Z" style="fill:#455a64"></path><path d="M324.58,307.62l.83-.48a2.69,2.69,0,0,1,.49,1.12L332,344.74l-.35.2a4.37,4.37,0,0,1-.49.23l-6.1-36.42A2.55,2.55,0,0,0,324.58,307.62Z" style="fill:#263238"></path><path d="M302.14,314.1c-.38-2.25-2.71-5.24-5.2-6.68s-4.2-.78-3.83,1.47,2.71,5.25,5.2,6.69S302.52,316.36,302.14,314.1Z" style="fill:#6B2B87"></path></g><g id="freepik--Microphone--inject-123"><g id="freepik--Cable--inject-123"><path d="M349.5,294.23c3.39-5.09,6.89-10.35,8.08-15.92,2.5-11.74,0-24.43,0-24.56a.75.75,0,1,0-1.47.29c0,.13,2.43,12.53,0,24-1.13,5.29-4.55,10.44-7.86,15.41" style="fill:#263238"></path></g><g id="freepik--pop-filter--inject-123"><path d="M347.59,278.05a1.12,1.12,0,0,0,.56-.15l10.53-6.08a30.61,30.61,0,0,0,15.26-26.43v-5.83a1.13,1.13,0,0,0-2.25,0v5.83a28.36,28.36,0,0,1-14.14,24.48L347,275.94a1.13,1.13,0,0,0,.56,2.11Z" style="fill:#263238"></path><path d="M357.13,215.41c0,8.92,6.26,19.76,14,24.22a12.74,12.74,0,0,0,6.25,1.91h.49a2.07,2.07,0,0,0,.35,0l.38,0,.08,0,.33-.06h.07l.33-.09.35-.1.08,0a3,3,0,0,0,.32-.12l.24-.1,0,0,.13-.06.25-.12.12-.07.08,0,1.49-.87c2.57-1.45,4.17-4.6,4.17-9.09,0-8.92-6.27-19.76-14-24.22-3.84-2.22-7.32-2.44-9.85-1l-1.45.84-.35.21-.22.14,0,0-.14.1-.19.14a.1.1,0,0,1-.05,0l-.22.19-.37.34-.25.27,0,0-.22.26c-.09.12-.19.24-.27.37a3.21,3.21,0,0,0-.21.3c-.06.1-.13.2-.19.31l-.1.17-.16.31-.18.38v0c-.06.13-.12.26-.17.4s-.11.29-.16.44-.09.25-.13.38l-.15.54c0,.14-.07.29-.1.43a.36.36,0,0,0,0,.1c0,.13-.06.26-.08.39s-.05.31-.07.47,0,.23-.05.35v.06c0,.12,0,.23,0,.34h0c0,.15,0,.3,0,.45s0,.28,0,.41,0,.21,0,.32Zm1.18.69c0-8.17,5.73-11.47,12.8-7.39s12.79,14,12.79,22.16-5.72,11.47-12.79,7.39S358.31,224.25,358.31,216.1Z" style="fill:#455a64"></path><path d="M358.31,216.1c0,8.15,5.73,18.08,12.8,22.16,3.94,2.27,7.46,2.25,9.81.38-2.23.88-5.11.52-8.25-1.29-7.06-4.08-12.79-14-12.79-22.16,0-3.61,1.12-6.27,3-7.77C360.08,208.53,358.31,211.57,358.31,216.1Z" style="fill:#263238"></path><path d="M357.13,215.41c0,8.92,6.26,19.76,14,24.22s14,.84,14-8.08-6.26-19.76-14-24.21S357.13,206.49,357.13,215.41Zm1.18.68c0-8.16,5.73-11.46,12.8-7.38s12.79,14,12.79,22.16-5.72,11.47-12.79,7.39S358.31,224.25,358.31,216.09Z" style="fill:#37474f"></path><path d="M359.26,215.58c0,8.16,5.72,18.08,12.79,22.16,3.23,1.86,6.18,2.19,8.43,1.21,2.13-1.41,3.42-4.2,3.42-8.08,0-8.16-5.72-18.08-12.79-22.16-3.24-1.87-6.19-2.19-8.44-1.2C360.55,208.92,359.26,211.7,359.26,215.58Z" style="opacity:0.5"></path></g><path d="M348.69,245.92V246l1.09.54a2.75,2.75,0,0,1,.43-.9,4.7,4.7,0,0,1,1.6-1.42,11.31,11.31,0,0,1,10.2,0,4.84,4.84,0,0,1,1.61,1.42,2.93,2.93,0,0,1,.42.9l1.1-.62c0-1.21-.81-2.43-2.41-3.35a12.82,12.82,0,0,0-11.63,0C349.49,243.49,348.69,244.71,348.69,245.92Z" style="fill:#455a64"></path><path d="M349.7,245.92a2.57,2.57,0,0,0,.08.62,2.75,2.75,0,0,1,.43-.9,4.7,4.7,0,0,1,1.6-1.42,11.31,11.31,0,0,1,10.2,0,4.84,4.84,0,0,1,1.61,1.42,2.93,2.93,0,0,1,.42.9,2.57,2.57,0,0,0,.08-.62A3.57,3.57,0,0,0,362,243a11.25,11.25,0,0,0-10.2,0A3.59,3.59,0,0,0,349.7,245.92Z" style="fill:#263238"></path><g id="freepik--microphone--inject-123"><path d="M351,252.45h1.51a4.55,4.55,0,0,1,.75-.55,8,8,0,0,1,7.25,0,4.45,4.45,0,0,1,.74.55h1.51l-.86,2.15h0a3,3,0,0,1-1.39,1.49,8,8,0,0,1-7.25,0,3,3,0,0,1-1.39-1.49h0Z" style="fill:#6B2B87"></path><path d="M351,252.45h1.51a4.55,4.55,0,0,1,.75-.55,8,8,0,0,1,7.25,0,4.45,4.45,0,0,1,.74.55h1.51l-.86,2.15h0a3,3,0,0,1-1.39,1.49,8,8,0,0,1-7.25,0,3,3,0,0,1-1.39-1.49h0Z" style="opacity:0.30000000000000004"></path><path d="M350.88,251.67v-15.5h12.06v15.51h0a3,3,0,0,1-1.76,2.46,9.43,9.43,0,0,1-8.53,0A3,3,0,0,1,350.88,251.67Z" style="fill:#6B2B87"></path><path d="M350.88,251.67v-15.5h12.06v15.51h0a3,3,0,0,1-1.76,2.46,9.43,9.43,0,0,1-8.53,0A3,3,0,0,1,350.88,251.67Z" style="opacity:0.15"></path><path d="M351.08,236.22a5.5,5.5,0,0,1,1-.74,10.66,10.66,0,0,1,9.65,0,5.41,5.41,0,0,1,1,.74h1v2h0a3.39,3.39,0,0,1-2,2.79,10.66,10.66,0,0,1-9.65,0,3.4,3.4,0,0,1-2-2.79h0v-2Z" style="fill:#6B2B87"></path><path d="M361.74,239a10.66,10.66,0,0,1-9.65,0c-2.67-1.53-2.67-4,0-5.57a10.72,10.72,0,0,1,9.65,0C364.4,235,364.4,237.47,361.74,239Z" style="fill:#6B2B87"></path><path d="M361.74,239a10.66,10.66,0,0,1-9.65,0c-2.67-1.53-2.67-4,0-5.57a10.72,10.72,0,0,1,9.65,0C364.4,235,364.4,237.47,361.74,239Z" style="fill:#fff;opacity:0.30000000000000004"></path><path d="M361.85,244l.52.3V254a3.79,3.79,0,0,1-.67.47,6.68,6.68,0,0,1-1.52.64l-.53-.3v-9.52Z" style="fill:#6B2B87"></path><path d="M362.37,254a3.79,3.79,0,0,1-.67.47,6.68,6.68,0,0,1-1.52.64v-9.51l2.19-1.27Z" style="opacity:0.25"></path><polygon points="362.37 244.3 361.85 244 359.65 245.26 360.18 245.57 362.37 244.3" style="fill:#fff;opacity:0.30000000000000004"></polygon><path d="M361.24,245.83a.38.38,0,0,1,.39,0l.26.15a.39.39,0,0,1,.17.36,1.23,1.23,0,0,1-.56,1,.38.38,0,0,1-.39,0l-.26-.15a.38.38,0,0,1-.16-.36A1.25,1.25,0,0,1,361.24,245.83Z" style="fill:#6B2B87"></path><path d="M361.24,245.83a.38.38,0,0,1,.39,0l.26.15a.39.39,0,0,1,.17.36,1.23,1.23,0,0,1-.56,1,.38.38,0,0,1-.39,0l-.26-.15a.38.38,0,0,1-.16-.36A1.25,1.25,0,0,1,361.24,245.83Z" style="fill:#6B2B87"></path><path d="M361.5,246a1.22,1.22,0,0,0-.56,1c0,.36.25.5.56.32a1.23,1.23,0,0,0,.56-1C362.06,245.94,361.81,245.8,361.5,246Z" style="opacity:0.15"></path><path d="M361.24,248.62a.38.38,0,0,1,.39,0l.26.15a.39.39,0,0,1,.17.36,1.22,1.22,0,0,1-.56,1,.38.38,0,0,1-.39,0l-.26-.14a.41.41,0,0,1-.16-.37A1.25,1.25,0,0,1,361.24,248.62Z" style="fill:#6B2B87"></path><path d="M361.24,248.62a.38.38,0,0,1,.39,0l.26.15a.39.39,0,0,1,.17.36,1.22,1.22,0,0,1-.56,1,.38.38,0,0,1-.39,0l-.26-.14a.41.41,0,0,1-.16-.37A1.25,1.25,0,0,1,361.24,248.62Z" style="fill:#6B2B87"></path><path d="M361.5,248.77a1.23,1.23,0,0,0-.56,1c0,.36.25.5.56.32a1.22,1.22,0,0,0,.56-1C362.06,248.73,361.81,248.59,361.5,248.77Z" style="opacity:0.15"></path><path d="M361.24,251.41a.38.38,0,0,1,.39,0l.26.15a.39.39,0,0,1,.17.36,1.2,1.2,0,0,1-.56,1,.38.38,0,0,1-.39,0l-.26-.14a.41.41,0,0,1-.16-.37A1.25,1.25,0,0,1,361.24,251.41Z" style="fill:#6B2B87"></path><path d="M361.24,251.41a.38.38,0,0,1,.39,0l.26.15a.39.39,0,0,1,.17.36,1.2,1.2,0,0,1-.56,1,.38.38,0,0,1-.39,0l-.26-.14a.41.41,0,0,1-.16-.37A1.25,1.25,0,0,1,361.24,251.41Z" style="fill:#6B2B87"></path><path d="M361.5,251.56a1.23,1.23,0,0,0-.56,1c0,.36.25.5.56.32a1.2,1.2,0,0,0,.56-1C362.06,251.53,361.81,251.38,361.5,251.56Z" style="opacity:0.15"></path><path d="M350.88,230.7l.38-6.87.29-4.88a2.79,2.79,0,0,1,1.25-2l.54-.31a2.61,2.61,0,0,1,2.34,0L361,219.7a2.84,2.84,0,0,1,1.26,2l.65,9v5.46h0a3,3,0,0,1-1.76,2.48,9.43,9.43,0,0,1-8.53,0,3,3,0,0,1-1.77-2.48h0Z" style="fill:#263238"></path><path d="M361,221.05l-.55.31a2.52,2.52,0,0,1-2.33,0l-5.35-3.09c-.65-.37-.65-1,0-1.35l.54-.31a2.61,2.61,0,0,1,2.34,0L361,219.7A.71.71,0,0,1,361,221.05Z" style="fill:#455a64"></path><path d="M354.72,232.28c-2.12-1.22-3.67-5-3.46-8.45l.29-4.88a.77.77,0,0,1,1.25-.68l5.35,3.09a2.39,2.39,0,0,1,1.08,2c-.07,1.15-.17,2.91-.29,4.89C358.73,231.71,356.84,233.51,354.72,232.28Z" style="fill:#37474f"></path><path d="M352.8,216.92l.54-.31h.11l6.91,4a1.45,1.45,0,0,1,.73,1.21l.54,16.53c-.14.1-.3.21-.47.31l-.18.1-.55-16.56a1.43,1.43,0,0,0-.73-1.21l-6.9-4Z" style="fill:#6B2B87"></path><path d="M353.45,216.61l6.91,4a1.35,1.35,0,0,1,.53.53l-.41.23-.26.13a1.34,1.34,0,0,0-.52-.51l-6.9-4v-.07l.54-.31Z" style="fill:#fff;opacity:0.30000000000000004"></path></g><path d="M348.69,246v1.16c0,1.22.8,2.43,2.41,3.36a12.88,12.88,0,0,0,11.63,0,5.69,5.69,0,0,0,1.81-1.57,3.1,3.1,0,0,0,.6-1.79v-1.24l-1.1.62a4,4,0,0,1-2,2.33,11.31,11.31,0,0,1-10.2,0,4,4,0,0,1-2-2.33Z" style="fill:#37474f"></path><path d="M349.78,246.54a4,4,0,0,0,2,2.33,11.31,11.31,0,0,0,10.2,0,4,4,0,0,0,2-2.33l1.1-.62h0a3.58,3.58,0,0,1-1.49,2.73,7.4,7.4,0,0,1-.92.63,12.82,12.82,0,0,1-11.63,0,6.72,6.72,0,0,1-.92-.63,3.58,3.58,0,0,1-1.49-2.65Z" style="fill:#455a64"></path><g id="freepik--Stand--inject-123"><path d="M338.77,298.25a3.05,3.05,0,0,1,.07-.67c.4-2.5,3.09-4.25,5.08-5h6.48c1.92.59,4.68,2.48,5.08,5a3.05,3.05,0,0,1,.07.67,1,1,0,0,1,0,.11,4.27,4.27,0,0,1-2.45,3.24,13.13,13.13,0,0,1-11.87,0,4.28,4.28,0,0,1-2.44-3.24A1,1,0,0,1,338.77,298.25Z" style="fill:#37474f"></path><path d="M351.19,293c2.23,1.28,2.23,3.37,0,4.65a8.88,8.88,0,0,1-8.06,0c-2.23-1.28-2.23-3.37,0-4.65A8.88,8.88,0,0,1,351.19,293Z" style="fill:#455a64"></path><path d="M346,285.83a2.5,2.5,0,0,1,2.26,0,.81.81,0,0,1,.47.65V295a.82.82,0,0,1-.47.66,2.5,2.5,0,0,1-2.26,0,.8.8,0,0,1-.47-.66v-8.49A.79.79,0,0,1,346,285.83Z" style="fill:#37474f"></path><path d="M347.83,286.13a1.7,1.7,0,0,1,.46.18,1.46,1.46,0,0,1,.24.17h.23V295a.82.82,0,0,1-.47.66,2.75,2.75,0,0,1-.46.18Z" style="opacity:0.25"></path><path d="M346,286.31a2.5,2.5,0,0,1,2.26,0,1.46,1.46,0,0,1,.24.17h.23v2.7a5.08,5.08,0,0,1-3.2,0v-2.66h.23A.92.92,0,0,1,346,286.31Z" style="opacity:0.25"></path><path d="M344.6,273.54a2.36,2.36,0,0,1,.46-.33,4.79,4.79,0,0,1,4.33,0,2,2,0,0,1,.45.33h.45V286.6h0a1.53,1.53,0,0,1-.9,1.25,4.79,4.79,0,0,1-4.33,0,1.53,1.53,0,0,1-.9-1.25h0V273.54Z" style="fill:#37474f"></path><path d="M348.5,272.86a3.18,3.18,0,0,1,.89.35,2,2,0,0,1,.45.33h.45V286.6a1.53,1.53,0,0,1-.9,1.25,3.93,3.93,0,0,1-.89.35Z" style="opacity:0.25"></path><path d="M349.39,274.79a4.79,4.79,0,0,1-4.33,0,1.32,1.32,0,0,1,0-2.5,4.79,4.79,0,0,1,4.33,0A1.32,1.32,0,0,1,349.39,274.79Z" style="fill:#455a64"></path><path d="M345.26,276.08a1,1,0,0,0-1-.1l-.64.37a1,1,0,0,0-.41.89,3.06,3.06,0,0,0,1.38,2.39,1,1,0,0,0,1,.1l.63-.37a1,1,0,0,0,.41-.89A3.06,3.06,0,0,0,345.26,276.08Z" style="fill:#6B2B87"></path><path d="M345.26,276.08a1,1,0,0,0-1-.1l-.64.37a1,1,0,0,0-.41.89,3.06,3.06,0,0,0,1.38,2.39,1,1,0,0,0,1,.1l.63-.37a1,1,0,0,0,.41-.89A3.06,3.06,0,0,0,345.26,276.08Z" style="fill:#6B2B87"></path><path d="M344.62,276.44a3.06,3.06,0,0,1,1.38,2.39c0,.88-.62,1.24-1.38.8a3.06,3.06,0,0,1-1.38-2.39C343.24,276.36,343.86,276,344.62,276.44Z" style="opacity:0.15"></path><path d="M345.79,255.15A.92.92,0,0,1,346,255a2.5,2.5,0,0,1,2.26,0,1.46,1.46,0,0,1,.24.17h.23v18.26h0a.81.81,0,0,1-.47.65,2.5,2.5,0,0,1-2.26,0,.79.79,0,0,1-.47-.65h0V255.15Z" style="fill:#37474f"></path><path d="M347.83,254.79a2.11,2.11,0,0,1,.46.19,1.46,1.46,0,0,1,.24.17h.23v18.26a.81.81,0,0,1-.47.65,1.7,1.7,0,0,1-.46.18Z" style="opacity:0.25"></path><path d="M348.29,255.8a2.44,2.44,0,0,1-2.26,0,.68.68,0,0,1,0-1.3,2.44,2.44,0,0,1,2.26,0A.68.68,0,0,1,348.29,255.8Z" style="fill:#455a64"></path><path d="M344.82,252.32a1.82,1.82,0,0,1,.4-.3,4.28,4.28,0,0,1,3.88,0,1.82,1.82,0,0,1,.4.3h.4v2.52h0a1.35,1.35,0,0,1-.8,1.11,4.28,4.28,0,0,1-3.88,0,1.35,1.35,0,0,1-.8-1.11h0v-2.52Z" style="fill:#6B2B87"></path><path d="M348.31,251.71a3.94,3.94,0,0,1,.79.31,1.82,1.82,0,0,1,.4.3h.4v2.52a1.35,1.35,0,0,1-.8,1.11,3.44,3.44,0,0,1-.79.32Z" style="opacity:0.25"></path><path d="M349.1,253.44a4.28,4.28,0,0,1-3.88,0,1.18,1.18,0,0,1,0-2.24,4.28,4.28,0,0,1,3.88,0A1.18,1.18,0,0,1,349.1,253.44Z" style="fill:#6B2B87"></path><path d="M349.1,253.44a4.28,4.28,0,0,1-3.88,0,1.18,1.18,0,0,1,0-2.24,4.28,4.28,0,0,1,3.88,0A1.18,1.18,0,0,1,349.1,253.44Z" style="fill:#fff;opacity:0.30000000000000004"></path><path d="M345.31,247.66a1.67,1.67,0,0,1,.32-.24,3.43,3.43,0,0,1,3.06,0,2.05,2.05,0,0,1,.32.24h.31v4.52h0a1.07,1.07,0,0,1-.63.88,3.37,3.37,0,0,1-3.06,0,1.07,1.07,0,0,1-.63-.88h0v-4.52Z" style="fill:#37474f"></path><path d="M348.06,247.18a2.94,2.94,0,0,1,.63.24,2.05,2.05,0,0,1,.32.24h.31v4.52a1.07,1.07,0,0,1-.63.88,2.51,2.51,0,0,1-.63.25Z" style="opacity:0.25"></path><path d="M348.69,248.54a3.37,3.37,0,0,1-3.06,0,.93.93,0,0,1,0-1.77,3.43,3.43,0,0,1,3.06,0A.94.94,0,0,1,348.69,248.54Z" style="fill:#455a64"></path><path d="M345.71,249.19a.47.47,0,0,0-.49-.05l-.32.18a.48.48,0,0,0-.21.45,1.52,1.52,0,0,0,.7,1.2.45.45,0,0,0,.49.05l.32-.18a.5.5,0,0,0,.2-.45A1.54,1.54,0,0,0,345.71,249.19Z" style="fill:#6B2B87"></path><path d="M345.71,249.19a.47.47,0,0,0-.49-.05l-.32.18a.48.48,0,0,0-.21.45,1.52,1.52,0,0,0,.7,1.2.45.45,0,0,0,.49.05l.32-.18a.5.5,0,0,0,.2-.45A1.54,1.54,0,0,0,345.71,249.19Z" style="fill:#6B2B87"></path><path d="M345.39,249.37a1.54,1.54,0,0,1,.69,1.2c0,.45-.31.63-.69.4a1.52,1.52,0,0,1-.7-1.2C344.69,249.33,345,249.15,345.39,249.37Z" style="opacity:0.15"></path></g></g></g></g></svg>