<svg xmlns="http://www.w3.org/2000/svg" viewBox="0 0 750 500"><g id="freepik--background-simple--inject-89"><path d="M251.84,169.89l0-3.15c-.17-26.55,13.87-51.26,37.1-63.61A70.44,70.44,0,0,1,298.2,99c23-8.16,50.16-3.67,69.61,11.51,11.44,8.92,20.85,21.51,34.69,25.67,18,5.4,36.33-5.35,51.92-15.63s33.95-21,51.93-15.5c11.27,3.43,20,12.83,25.63,23.23,15,27.54,11.09,62.82-5.25,89.22s-43.51,44.58-72.58,55.29c-40.73,15-87.53,16.14-127.31-2.09S255.85,213.52,251.84,169.89Z" style="fill:#f5f5f5"></path><circle cx="613.92" cy="100.93" r="34.1" style="fill:#f5f5f5"></circle><circle cx="141.48" cy="100.93" r="34.1" style="fill:#f5f5f5"></circle></g><g id="freepik--Floor--inject-89"><path d="M719.29,451.44c0,.14-154.16.26-344.27.26s-344.31-.12-344.31-.26,154.13-.26,344.31-.26S719.29,451.29,719.29,451.44Z" style="fill:#263238"></path></g><g id="freepik--speech-bubble--inject-89"><path d="M197.93,219.81a19.85,19.85,0,1,1,7.65,15.71h0l-6.66.86,1.91-6.17A19.7,19.7,0,0,1,197.93,219.81Z" style="fill:#fff"></path><path d="M197.93,219.81a15,15,0,0,0,.14,2.86,19.56,19.56,0,0,0,2.67,7.59v-.08l-1.93,6.16a.15.15,0,0,0,.08.17h.06l6.66-.84a.15.15,0,0,0,.13-.16l0-.08h0l-.21.2a20.09,20.09,0,0,0,8.05,3.79,18.69,18.69,0,0,0,4.87.43l1.26-.06c.43,0,.85-.12,1.27-.18a20.6,20.6,0,0,0,2.54-.56,20.05,20.05,0,0,0,4.87-2.2l.59-.36.55-.41c.37-.28.75-.54,1.1-.84a20.53,20.53,0,0,0,2-2,21.36,21.36,0,0,0,1.78-2.22,22.84,22.84,0,0,0,1.42-2.51,21.29,21.29,0,0,0,1.09-2.71,21.8,21.8,0,0,0,.65-2.88,19.62,19.62,0,0,0-.08-6.71,20.55,20.55,0,0,0-2.2-6.14,19.66,19.66,0,0,0-3.9-4.93,22.83,22.83,0,0,0-2.39-1.92,21.65,21.65,0,0,0-2.61-1.46l-.66-.32c-.22-.1-.46-.17-.68-.26-.46-.16-.91-.35-1.37-.49a22.23,22.23,0,0,0-5.51-.86,12.1,12.1,0,0,0-1.35,0,9.65,9.65,0,0,0-1.32.1,20,20,0,0,0-9,3.4,20.22,20.22,0,0,0-5.5,5.77,22.22,22.22,0,0,0-1.53,2.91,19.4,19.4,0,0,0-.86,2.62c-.1.4-.2.78-.28,1.14s-.11.7-.15,1-.09.6-.13.87,0,.51,0,.73c0,.42,0,.75,0,1s0,.34,0,.34l0-.34c0-.24,0-.56.07-1,0-.21,0-.46.06-.72s.09-.56.14-.87.11-.65.17-1,.19-.73.29-1.12a21.07,21.07,0,0,1,.89-2.59,22,22,0,0,1,1.54-2.87,20.18,20.18,0,0,1,5.47-5.65,19.75,19.75,0,0,1,8.91-3.32,11.05,11.05,0,0,1,1.3-.09,11.58,11.58,0,0,1,1.32,0,21.45,21.45,0,0,1,5.42.86c.45.14.89.32,1.34.48.22.09.45.16.67.26l.65.32a17.82,17.82,0,0,1,4.9,3.33,19.19,19.19,0,0,1,3.82,4.85,20,20,0,0,1,2.16,6,19.12,19.12,0,0,1,.07,6.58,21,21,0,0,1-.63,2.83,21.9,21.9,0,0,1-1.07,2.65,20.66,20.66,0,0,1-1.4,2.47,21.5,21.5,0,0,1-1.73,2.18,21,21,0,0,1-2,1.92c-.35.29-.73.55-1.09.82l-.54.41-.57.34a19.56,19.56,0,0,1-4.78,2.18,20.2,20.2,0,0,1-2.49.55c-.42.06-.84.14-1.25.18l-1.24.06a18.47,18.47,0,0,1-4.79-.4,19.85,19.85,0,0,1-7.93-3.7.15.15,0,0,0-.21,0,.15.15,0,0,0,0,.18h0l.1-.23-6.65.88.13.16c.7-2.28,1.34-4.36,1.89-6.18a.1.1,0,0,0,0-.09,19.89,19.89,0,0,1-2.74-7.5c-.14-.92-.18-1.63-.21-2.11l0-.55A1.23,1.23,0,0,0,197.93,219.81Z" style="fill:#263238"></path><path d="M212.58,220.12a2.31,2.31,0,1,1-2.3-2.31A2.32,2.32,0,0,1,212.58,220.12Z" style="fill:#263238"></path><path d="M220.06,220.18a2.31,2.31,0,1,1-2.3-2.32A2.31,2.31,0,0,1,220.06,220.18Z" style="fill:#263238"></path><path d="M227.42,219a2.31,2.31,0,1,1-3.15-.85A2.31,2.31,0,0,1,227.42,219Z" style="fill:#263238"></path></g><g id="freepik--Table--inject-89"><path d="M493.78,262.87h22.76A22.44,22.44,0,0,1,539,285.31v33.92a0,0,0,0,1,0,0H471.34a0,0,0,0,1,0,0V285.31A22.44,22.44,0,0,1,493.78,262.87Z" style="fill:#263238"></path><rect x="310.94" y="326.31" width="244.56" height="124.51" style="fill:#ae7461"></rect><path d="M555.5,347.52c0,.15-54.81.26-122.42.26s-122.42-.11-122.42-.26,54.8-.26,122.42-.26S555.5,347.38,555.5,347.52Z" style="fill:#263238"></path><path d="M555.5,364.24c0,.14-54.81.26-122.42.26s-122.42-.12-122.42-.26,54.8-.26,122.42-.26S555.5,364.09,555.5,364.24Z" style="fill:#263238"></path><path d="M555.5,381c0,.15-54.81.26-122.42.26s-122.42-.11-122.42-.26,54.8-.26,122.42-.26S555.5,380.81,555.5,381Z" style="fill:#263238"></path><path d="M555.5,397.67c0,.14-54.81.26-122.42.26s-122.42-.12-122.42-.26,54.8-.26,122.42-.26S555.5,397.52,555.5,397.67Z" style="fill:#263238"></path><path d="M555.5,414.38c0,.14-54.81.26-122.42.26s-122.42-.12-122.42-.26,54.8-.26,122.42-.26S555.5,414.24,555.5,414.38Z" style="fill:#263238"></path><path d="M555.5,431.09c0,.15-54.81.26-122.42.26s-122.42-.11-122.42-.26,54.8-.26,122.42-.26S555.5,431,555.5,431.09Z" style="fill:#263238"></path><rect x="299.11" y="314.91" width="256.39" height="11.4" style="fill:#6f4439"></rect></g><g id="freepik--character-3--inject-89"><path d="M599.75,227.38h0a8.58,8.58,0,0,1-8.58,8.58H570V218.8h21.13A8.58,8.58,0,0,1,599.75,227.38Z" style="fill:#263238"></path><rect x="560.88" y="218.8" width="9.17" height="17.16" style="fill:#263238"></rect><polygon points="570.04 218.8 558.68 214.22 558.68 240.51 570.04 235.96 570.04 218.8" style="fill:#455a64"></polygon><path d="M570,218.8a8.88,8.88,0,0,1,.06,1.2c0,.86,0,2,.06,3.47,0,3.08.06,7.37.11,12.49v.15l-.15.06-11.35,4.58-.35.15v-5c0-8.29,0-15.88.06-21.72v-.3l.27.12,8.31,3.45,2.23,1a5,5,0,0,1,.75.35,7.22,7.22,0,0,1-.84-.28l-2.3-.88-8.3-3.23.28-.19c0,5.84,0,13.43.06,21.72v4.57l-.36-.24L570,235.75l-.15.21c.05-5.07.08-9.32.11-12.38,0-1.46.05-2.64.06-3.51q0-.56,0-.93A1.66,1.66,0,0,1,570,218.8Z" style="fill:#263238"></path><rect x="601.17" y="209.22" width="8.4" height="4.04" transform="translate(1210.74 422.48) rotate(180)" style="fill:#263238"></rect><rect x="585.64" y="212.81" width="62.97" height="28.87" style="fill:#455a64"></rect><rect x="601.17" y="241.68" width="29.16" height="12.66" transform="translate(1231.51 496.01) rotate(180)" style="fill:#455a64"></rect><rect x="590.83" y="202.98" width="29.72" height="7.36" transform="translate(1211.39 413.33) rotate(180)" style="fill:#455a64"></rect><path d="M598.52,210.07a23.86,23.86,0,0,0,0-6.61,23.86,23.86,0,0,0,0,6.61Z" style="fill:#263238"></path><path d="M612.75,210.07a23.86,23.86,0,0,0,0-6.61,23.86,23.86,0,0,0,0,6.61Z" style="fill:#263238"></path><path d="M631.44,241.68c0-.13-10.16-.18-22.69-.11s-22.68.22-22.68.34,10.16.18,22.69.12S631.44,241.81,631.44,241.68Z" style="fill:#263238"></path><polygon points="662.44 459.28 628.47 289.87 622.98 291.01 659.04 459.28 662.44 459.28" style="fill:#455a64"></polygon><polygon points="568.73 459.28 601.17 289.87 606.49 293.27 572.13 459.28 568.73 459.28" style="fill:#455a64"></polygon><polygon points="621.74 289.87 617.13 271.03 612.32 271.03 607.76 289.87 621.74 289.87" style="fill:#263238"></polygon><rect x="611.77" y="254.33" width="6.53" height="17.94" transform="translate(1230.06 526.61) rotate(180)" style="fill:#263238"></rect><path d="M608.29,269.83a6.53,6.53,0,1,0,6.53-6.53A6.53,6.53,0,0,0,608.29,269.83Z" style="fill:#455a64"></path><rect x="601.17" y="289.86" width="27.3" height="5.29" transform="translate(1229.64 585.02) rotate(180)" style="fill:#455a64"></rect><rect x="642.6" y="202.98" width="5.05" height="9.82" transform="translate(1290.24 415.79) rotate(180)" style="fill:#263238"></rect><rect x="630.33" y="188.36" width="27.18" height="15.14" style="fill:#455a64"></rect><rect x="656.98" y="189.43" width="3.76" height="12.47" transform="translate(1317.71 391.32) rotate(180)" style="fill:#455a64"></rect><path d="M641.14,203a58.56,58.56,0,0,0,.23-7.37,58.56,58.56,0,0,0-.23-7.37,60.93,60.93,0,0,0-.23,7.37A60.93,60.93,0,0,0,641.14,203Z" style="fill:#263238"></path><path d="M631.88,196.11a3.22,3.22,0,1,0,3.22-3.22A3.22,3.22,0,0,0,631.88,196.11Z" style="fill:#263238"></path><path d="M644.87,191.8h5.54a.79.79,0,0,0,.8-.79h0a.79.79,0,0,0-.8-.79h-5.54a.79.79,0,0,0-.79.79h0A.79.79,0,0,0,644.87,191.8Z" style="fill:#263238"></path><path d="M657.64,203.35a56.4,56.4,0,0,0,.23-7.23,56.5,56.5,0,0,0-.23-7.24,60.11,60.11,0,0,0-.22,7.24A60,60,0,0,0,657.64,203.35Z" style="fill:#263238"></path><path d="M721.45,194.15a23.14,23.14,0,0,0-3.31-7.12,2.32,2.32,0,0,0,.64-3.3,3.32,3.32,0,0,0-.92-5.41,2.19,2.19,0,0,0-.26-2.88,6.39,6.39,0,0,0-2.81-1.44l-6-1.87a4.38,4.38,0,0,0-5.54-2.41c-1.2-1.8-6.88-2.69-9.42-.35-9.65-8.49-15.42-8-23.87-4.91-2.09.77-5,3-5.82,5.06a23.19,23.19,0,0,0-5.26,1.8,4.83,4.83,0,0,0-2.72,2.5c-.4,1.2.53,2.83,1.78,2.62a8.51,8.51,0,0,0-3.87,3.08c-.8,1.47-.39,3.72,1.21,4.22a27.35,27.35,0,0,0-3.71,8.13,3.64,3.64,0,0,0-.3.63,3.39,3.39,0,0,0,1.48,6.18,4.42,4.42,0,0,0,2.1,8.33,5.77,5.77,0,0,0,5.75,10,11.85,11.85,0,0,0,12.7,5.13,25.86,25.86,0,0,1,3.63-.95c1.53-.15,3.08.29,4.6.06,2.54-.4,4.46-2.64,5.25-5.09,2.67-.28,5.43-.68,8.46-1.21,4.5,4.08,9.05.75,8.49-1,2.63-.14,4,.21,6.43-.79a9.2,9.2,0,0,0,3.17-1.84l.38-.44a4.24,4.24,0,0,0-.43-5.84,1,1,0,0,1-.28-.68,5,5,0,0,1,3-.25,3.76,3.76,0,0,0,2.95-.54c.77-.69.61-2.3-.42-2.42a2.71,2.71,0,0,0,.14-2.92c.83.72,2.24.13,2.72-.86A4.72,4.72,0,0,0,721.45,194.15Z" style="fill:#263238"></path><path d="M695,178.43l-13.78-6.09c-5.47-1.37-10.14,4.94-11.28,10.46-1.27,6.13-2.58,13.67-2.51,18.4A14.29,14.29,0,0,0,675.6,214s-.76,5.68-.76,5.68c.29,4.45,4.93,5,4.93,5,12.71,1.52,14.26-5.59,14.26-5.59l3.34-35.26C697.65,182.13,696.64,178.84,695,178.43Z" style="fill:#ae7461"></path><path d="M677.56,197.85a8.71,8.71,0,0,0-2-.67c-.32-.08-.62-.19-.64-.42a1.64,1.64,0,0,1,.35-.94l1.33-2.36a43,43,0,0,0,3.1-6.21,42.91,42.91,0,0,0-3.6,5.95c-.44.83-.87,1.62-1.28,2.37a1.89,1.89,0,0,0-.35,1.26.84.84,0,0,0,.47.56,2.88,2.88,0,0,0,.54.16A8.76,8.76,0,0,0,677.56,197.85Z" style="fill:#263238"></path><path d="M675.6,214a31,31,0,0,0,11.83-2.68s-2.73,5.68-12.18,5.5Z" style="fill:#6f4439"></path><path d="M684.44,184c.08.37,1.38.39,2.86.78s2.64,1,2.88.7,0-.5-.5-.91a4.91,4.91,0,0,0-2-1.06,5,5,0,0,0-2.32-.06C684.73,183.63,684.41,183.86,684.44,184Z" style="fill:#263238"></path><path d="M672.08,182.63c.19.32,1.11.14,2.18.28s1.93.47,2.18.2,0-.45-.34-.78a3.12,3.12,0,0,0-1.7-.73,3.07,3.07,0,0,0-1.81.34C672.17,182.19,672,182.47,672.08,182.63Z" style="fill:#263238"></path><path d="M665.29,186.88a6.4,6.4,0,0,1,1.94-3.87c.6-.53,1.34-.91,1.89-1.5,1.18-1.28,1.22-3.21,1.83-4.84a7.09,7.09,0,0,1,4.83-4.32c1.81-.46,3.78-.18,5.51-.89,1.28-.53,2.31-1.56,3.61-2,2.55-.87,5.25.65,7.42,2.24.27,1.87-1,3.34-2.3,4.75a6.54,6.54,0,0,1-5,2.15c-1.47-.05-3.14-.55-4.26.39s-1,3-2,4.13c-1.44,1.67-4.26.71-6.26,1.63-1.55.71-2.33,2.41-3.22,3.86s-2.31,2.92-4,2.68A19,19,0,0,1,665.29,186.88Z" style="fill:#263238"></path><path d="M688.35,174.67a33.14,33.14,0,0,1,12.28,3.46,6.1,6.1,0,0,1,2.88,2.43,6,6,0,0,1,.33,3.3c-.38,3.49-2.2,7.63-3.85,10.73l-4.62,2.19c-3.28-1.12-1.17-6.78-.73-9.67a6.91,6.91,0,0,1-3.42-6.45A7.67,7.67,0,0,1,688.35,174.67Z" style="fill:#263238"></path><path d="M695.56,195.53c.32-2,2.81-2.14,4.43-.94.89.66,1.49,1.84,1.16,3.95-.87,5.63-6.34,3.59-6.32,3.43S695.17,197.85,695.56,195.53Z" style="fill:#ae7461"></path><path d="M696.88,200.11s.08.08.24.18a1,1,0,0,0,.73.13,2.46,2.46,0,0,0,1.46-2,3.33,3.33,0,0,0-.06-1.45,1.12,1.12,0,0,0-.62-.86.5.5,0,0,0-.62.17c-.1.15-.08.27-.11.27s-.11-.11,0-.34a.62.62,0,0,1,.28-.31.71.71,0,0,1,.56-.06,1.37,1.37,0,0,1,.89,1,3.36,3.36,0,0,1,.1,1.62,2.58,2.58,0,0,1-1.81,2.21,1.06,1.06,0,0,1-.87-.29C696.86,200.24,696.85,200.11,696.88,200.11Z" style="fill:#6f4439"></path><path d="M682.59,193a1.24,1.24,0,0,0,1,1.4,1.19,1.19,0,0,0,1.42-.92,1.24,1.24,0,0,0-1-1.4A1.18,1.18,0,0,0,682.59,193Z" style="fill:#263238"></path><path d="M671.27,191.68a1.24,1.24,0,0,0,1,1.4,1.17,1.17,0,0,0,1.41-.92,1.23,1.23,0,0,0-1-1.4A1.19,1.19,0,0,0,671.27,191.68Z" style="fill:#263238"></path><path d="M671.8,186.92c.1.2,1.1-.35,2.29-.1s1.92,1.13,2.08,1,0-.39-.3-.79a2.74,2.74,0,0,0-3.49-.71C671.94,186.55,671.75,186.83,671.8,186.92Z" style="fill:#263238"></path><path d="M683.23,189c.15.21,1.26-.49,2.71-.34s2.43,1,2.6.87,0-.44-.47-.85a3.54,3.54,0,0,0-2.06-.92,3.43,3.43,0,0,0-2.18.51C683.35,188.61,683.16,188.93,683.23,189Z" style="fill:#263238"></path><path d="M683,201.19a1.8,1.8,0,0,0-1.68-1.59,1.9,1.9,0,0,0-1.57.85,2.31,2.31,0,0,0-.3,1.78v.13a2.06,2.06,0,0,0,2.23.78A1.92,1.92,0,0,0,683,201.19Z" style="fill:#6f4439"></path><path d="M678.45,202.26c0-.2,1.4,0,2.59-1s1.3-2.51,1.49-2.49.21.38.12,1a3.5,3.5,0,0,1-1.17,2.09,3,3,0,0,1-2.15.73C678.74,202.57,678.42,202.36,678.45,202.26Z" style="fill:#263238"></path><path d="M713.6,187.56a16.15,16.15,0,0,1,7.43,1.6,7.63,7.63,0,0,1,4.18,6c.11,2.56-1.89,5.2-4.45,5.28a6,6,0,0,1-2.63,11.45c2.74,1.34,2.85,5.55.89,7.89s-5.15,3.19-8.16,3.66a11.09,11.09,0,0,1-19.94-.91,6.58,6.58,0,0,1-.24-13.15,5.35,5.35,0,0,1,1.39-4.84,5.87,5.87,0,0,1,5.6-2s2.86,0,3.8-1.91,1.53-6.63,1.53-6.63Z" style="fill:#263238"></path><path d="M700,198.52a1.7,1.7,0,1,1-1.7-1.7A1.7,1.7,0,0,1,700,198.52Z" style="fill:#455a64"></path><path d="M685.71,204.15a15.69,15.69,0,0,1-1.81-.1l.1-1a17.15,17.15,0,0,0,13.78-4.9l.71.7A18.13,18.13,0,0,1,685.71,204.15Z" style="fill:#455a64"></path><rect x="683" y="202.46" width="3.46" height="2.3" rx="0.76" style="fill:#455a64"></rect><path d="M698.78,198.44l-.93-.37a39.34,39.34,0,0,0,2.07-16.44,17.93,17.93,0,0,0-6.35-11.86l.6-.8a18.58,18.58,0,0,1,6.75,12.57A39.8,39.8,0,0,1,698.78,198.44Z" style="fill:#455a64"></path><path d="M685,218.36l-7.05-.57s-18,14.32-21.66,32.56-7.9,36.46-7.9,36.46l32.81,4a37.19,37.19,0,0,0,10.27-.14l3.42-.51L692,278.61s5.2-21.91,7.23-30.17a37,37,0,0,0,.13-17.8A16.2,16.2,0,0,0,685,218.36Z" style="fill:#6B2B87"></path><g style="opacity:0.30000000000000004"><path d="M663.12,253.93,649.82,280c3.45-.12,5.9-1.56,8.24-4.08a37.55,37.55,0,0,0,5.53-8.7c3.95-7.78,7.77-15.88,8.55-24.57A96,96,0,0,0,663.12,253.93Z"></path></g><path d="M697.42,226s18.1,37.75,16.74,42.9c-1.54,5.81-6.7,8-10.24,6.88s-12.42-7.31-12.42-7.31Z" style="fill:#6B2B87"></path><path d="M595.61,242.05c-.54-2.62,11,.1,12.68.65,1.07.34,3.71,1.51,3.71,1.51,1.48.54,1.28-.66,1.28-.66a7.47,7.47,0,0,0-1.23-2.86,8.5,8.5,0,0,1-1-2.37c-.12-1.61,1.11-2.8,2.14-1a14,14,0,0,0,2,2.46C617.4,242,624.71,250,624.71,250l-5.64,7.36s-3.76-1.84-7.44-3.8c-3.34-1.78-10.5-7.07-15.75-10.88" style="fill:#ae7461"></path><path d="M623.66,247.45c.19.29,19.36,11.25,19.36,11.25s9-17.08,11.85-23,6.34-14.28,10.92-16.86,12.12-1,12.12-1L674.85,240l-7.44,16s-8.83,17.65-13.68,21.76c-4.41,3.74-11.26,2.24-14.39.41s-23.6-19.47-23.6-19.47Z" style="fill:#6B2B87"></path><path d="M674.85,240.28a2.07,2.07,0,0,1-.19.53L674,242.3c-.56,1.29-1.39,3.14-2.45,5.41-2.12,4.55-5.17,10.77-8.78,17.52a69.9,69.9,0,0,1-5.55,9.27,19.4,19.4,0,0,1-3.31,3.39,11.59,11.59,0,0,1-3.67,1.92,12.25,12.25,0,0,1-5.93.3,10.64,10.64,0,0,1-1.57-.42,2.06,2.06,0,0,1-.52-.22s.74.24,2.12.47a12.45,12.45,0,0,0,5.8-.44,11.15,11.15,0,0,0,3.54-1.9,19,19,0,0,0,3.21-3.35A71,71,0,0,0,662.4,265c3.61-6.74,6.7-12.94,8.89-17.45l2.58-5.34.71-1.45A3.36,3.36,0,0,1,674.85,240.28Z" style="fill:#263238"></path><path d="M699.75,240.79a4.59,4.59,0,0,1-.09,1.28c-.1.81-.26,2-.49,3.44-.45,2.91-1.14,6.92-2,11.33s-1.68,8.39-2.35,11.25c-.35,1.43-.63,2.59-.86,3.38a6.74,6.74,0,0,1-.39,1.22,6.91,6.91,0,0,1,.22-1.26l.72-3.41c.6-2.87,1.38-6.86,2.22-11.27s1.54-8.32,2.1-11.29c.25-1.38.47-2.53.63-3.42S699.73,240.79,699.75,240.79Z" style="fill:#263238"></path><path d="M649.69,439l1.69,17.54s-19.12,7.14-19.33,10.67l36.14.1,0-2.64-1.51-9-2.24-17.52Z" style="fill:#455a64"></path><path d="M662.25,453.81a1.51,1.51,0,0,1,1,1.73,1.44,1.44,0,0,1-1.69,1,1.59,1.59,0,0,1-1.1-1.83,1.5,1.5,0,0,1,1.88-.9" style="fill:#e0e0e0"></path><path d="M668.19,467.31l0-2.64-34.66.66s-1.65.72-1.46,1.88Z" style="fill:#263238"></path><path d="M650.78,456.35c0,.18.91.26,1.8.84s1.36,1.33,1.53,1.26-.11-1.11-1.2-1.79S650.74,456.18,650.78,456.35Z" style="fill:#263238"></path><path d="M646.9,458c0,.18.74.48,1.36,1.25s.79,1.57,1,1.56.3-1-.49-2S646.9,457.79,646.9,458Z" style="fill:#263238"></path><path d="M644.71,462.61c.16,0,.41-.86-.05-1.85s-1.31-1.38-1.39-1.23.45.68.82,1.49S644.53,462.59,644.71,462.61Z" style="fill:#263238"></path><path d="M649.49,452.13c.08.17.91-.08,1.93,0s1.82.39,1.91.23-.67-.79-1.88-.86S649.41,452,649.49,452.13Z" style="fill:#263238"></path><path d="M694.1,439.49l1.55,17.24s-18.82,6.9-19,10.37l35.51.32v-2.6L710.67,456l-2.09-17.23Z" style="fill:#455a64"></path><path d="M706.35,454.13a1.46,1.46,0,0,1,1,1.69,1.42,1.42,0,0,1-1.67,1,1.57,1.57,0,0,1-1.07-1.8,1.48,1.48,0,0,1,1.86-.88" style="fill:#e0e0e0"></path><path d="M712.11,467.42v-2.6l-34.05.45s-1.62.69-1.45,1.83Z" style="fill:#263238"></path><path d="M695.06,456.55c0,.17.9.26,1.77.83s1.33,1.32,1.49,1.25-.09-1.09-1.16-1.77S695,456.38,695.06,456.55Z" style="fill:#263238"></path><path d="M691.25,458.11c0,.17.72.47,1.32,1.23s.77,1.54.95,1.54.29-1-.47-1.93S691.25,457.94,691.25,458.11Z" style="fill:#263238"></path><path d="M689.07,462.66c.16,0,.41-.85-.05-1.82s-1.28-1.36-1.35-1.21.43.66.79,1.47S688.89,462.64,689.07,462.66Z" style="fill:#263238"></path><path d="M693.83,452.4c.07.16.89-.08,1.89,0s1.78.39,1.88.24-.66-.79-1.84-.86S693.74,452.26,693.83,452.4Z" style="fill:#263238"></path><path d="M648.91,286.48s-8.56,24.81-8.86,43.26-.59,47.81,3.25,80.18,5.61,45.38,5.61,45.38h19.5a383.86,383.86,0,0,0,1.77-38.42c-.3-18.16-1.72-23.9,0-43.87s4.5-32,7.4-38c0,0,8-9.56,8.64-22.68a64,64,0,0,0-4-24.4Z" style="fill:#263238"></path><path d="M666.24,321.28c.32,1,6.1,41.67,10.33,59.61s8.91,22.69,9.73,37.29c1,16.78,5.56,37.12,5.56,37.12h20.76s-2.92-31-5.84-55.28-7.14-54.15-6.49-63.12,2.27-20,0-32.62-7.18-15.88-7.18-15.88l-17.61-.79Z" style="fill:#263238"></path><path d="M685.77,298a3.21,3.21,0,0,1,.33.63,13.35,13.35,0,0,1,.7,1.91,25.44,25.44,0,0,1,.69,7.44,49,49,0,0,1-1.71,10.94,34.94,34.94,0,0,1-2.27,6.16,42.5,42.5,0,0,1-3.75,5.95c-2.82,3.89-4.21,8.32-5.27,12.31a90.38,90.38,0,0,0-2,10.86c-.38,3.12-.61,5.66-.78,7.41-.09.84-.16,1.52-.21,2a3.6,3.6,0,0,1-.1.7,4.76,4.76,0,0,1,0-.71l.12-2c.12-1.75.3-4.3.65-7.43a82.37,82.37,0,0,1,1.88-10.91,54.06,54.06,0,0,1,2-6.26,29.74,29.74,0,0,1,1.45-3.16,33.2,33.2,0,0,1,1.88-3,43.56,43.56,0,0,0,3.73-5.9,34.86,34.86,0,0,0,2.26-6.07A49.93,49.93,0,0,0,687.18,308a26.72,26.72,0,0,0-.54-7.38,16,16,0,0,0-.62-1.91A6,6,0,0,1,685.77,298Z" style="fill:#455a64"></path><polygon points="697.24 293.45 646.23 293.45 648.35 284.93 693.86 284.88 697.24 293.45" style="fill:#455a64"></polygon><path d="M653.83,289.81a142.89,142.89,0,0,0-.06,18c.16,2.76.45,5.65,2,7.91,2.61,3.79,8,4.6,12.49,3.83,2.28-.38,4.67-1.2,6-3.12,1-1.57,1.15-3.57,1.22-5.46q.39-11.19.79-22.37Z" style="fill:#455a64"></path></g><g id="freepik--character-1--inject-89"><rect x="109.9" y="364.24" width="126.2" height="26.93" rx="8.94" style="fill:#6B2B87"></rect><path d="M197.94,348.87h43.53a9.79,9.79,0,0,1,9.79,9.79V451.5a0,0,0,0,1,0,0H197.94a0,0,0,0,1,0,0V348.87A0,0,0,0,1,197.94,348.87Z" style="fill:#6B2B87"></path><path d="M115.16,292.76h84.24a13.11,13.11,0,0,1,13.11,13.11v58.36a0,0,0,0,1,0,0H115.16a0,0,0,0,1,0,0V292.76A0,0,0,0,1,115.16,292.76Z" style="fill:#6B2B87"></path><path d="M83,292.76H183.21a0,0,0,0,1,0,0v71.48a0,0,0,0,1,0,0H70.92a0,0,0,0,1,0,0v-59.4A12.08,12.08,0,0,1,83,292.76Z" style="fill:#6B2B87"></path><polygon points="232.3 451.96 123.37 452.49 123.37 389.73 232.3 389.73 232.3 451.96" style="fill:#6B2B87"></polygon><g style="opacity:0.30000000000000004"><path d="M83,292.76h15.6a0,0,0,0,1,0,0v71.48a0,0,0,0,1,0,0H70.92a0,0,0,0,1,0,0v-59.4A12.08,12.08,0,0,1,83,292.76Z"></path></g><path d="M201.88,401.17c0,.15-15.43.26-34.45.26s-34.45-.11-34.45-.26,15.42-.26,34.45-.26S201.88,401,201.88,401.17Z" style="fill:#263238"></path><path d="M248.3,382.87,260,398.54s19.87-6.67,22.32-4L252.79,418.4,233.5,394.74Z" style="fill:#263238"></path><path d="M249.86,404.63a1.54,1.54,0,0,0,.28,2.05,1.49,1.49,0,0,0,2-.26,1.64,1.64,0,0,0-.3-2.17,1.55,1.55,0,0,0-2.09.5" style="fill:#e0e0e0"></path><path d="M252.79,418.4l-1.85-2.46L280,394s1.78-.49,2.38.56Z" style="fill:#455a64"></path><path d="M260.39,398c.11.15-.56.8-.89,1.83s-.23,1.95-.41,2-.63-1-.2-2.2S260.32,397.84,260.39,398Z" style="fill:#fff"></path><path d="M264.53,396.78c.14.11-.29.86-.28,1.87s.38,1.77.23,1.88-.9-.64-.88-1.89S264.41,396.65,264.53,396.78Z" style="fill:#fff"></path><path d="M269.28,399.07c-.11.14-.89-.42-1.16-1.51s.16-1.95.32-1.88.08.83.31,1.72S269.41,398.94,269.28,399.07Z" style="fill:#fff"></path><path d="M257.32,394.73c.05.18-.78.51-1.55,1.22s-1.2,1.49-1.37,1.43,0-1.08.94-1.9S257.3,394.56,257.32,394.73Z" style="fill:#fff"></path><path d="M221.94,436.29l-.75,19.56s19.64,7.32,19.85,10.95l-38-.08L203,436.19Z" style="fill:#263238"></path><path d="M209.45,454.18a1.54,1.54,0,0,0-1.07,1.76,1.49,1.49,0,0,0,1.74,1.09,1.64,1.64,0,0,0,1.13-1.88,1.56,1.56,0,0,0-1.94-.93" style="fill:#e0e0e0"></path><path d="M203.06,466.72l.11-3.08,36.38,1.23s1.68.74,1.49,1.93Z" style="fill:#455a64"></path><path d="M221.81,455.66c0,.18-.93.26-1.85.86s-1.4,1.37-1.57,1.3.11-1.15,1.23-1.85S221.85,455.49,221.81,455.66Z" style="fill:#fff"></path><path d="M225.79,457.31c0,.18-.76.49-1.39,1.28s-.82,1.61-1,1.6-.3-1.06.5-2S225.79,457.13,225.79,457.31Z" style="fill:#fff"></path><path d="M228,462.08c-.17,0-.42-.88.06-1.9s1.34-1.42,1.42-1.26-.46.69-.84,1.53S228.23,462.07,228,462.08Z" style="fill:#fff"></path><path d="M221.48,451.18c-.07.17-.92-.09-2,0s-1.87.4-2,.24.7-.82,1.93-.89S221.58,451,221.48,451.18Z" style="fill:#fff"></path><path d="M144.75,350.51c.5-.16,17.78-7.74,32-13.58,9.45-3.89,17.87-6.89,17.87-6.89s13-7.37,18.52.26,49.06,60.73,48.78,61.55-18.85,17.32-18.85,17.32-40.05-51-40.87-50.71-19.33,14.77-19.33,14.77-5.56,5.74-9.67,6.29-28.11-1.36-28.11-1.36L136,353.52Z" style="fill:#263238"></path><path d="M165.17,372c.86.57,10,7,10,7l20.64,4.77L200,451.5l24.67-.88s0-48.88,0-60.33-.28-22-3.72-25.75-18.79-6.08-18.79-6.08Z" style="fill:#263238"></path><path d="M224.67,387.66a4.44,4.44,0,0,1,0-.8c0-.57,0-1.34,0-2.3,0-2-.09-4.89-.33-8.44-.13-1.78-.31-3.73-.65-5.79q-.15-.76-.3-1.56c-.14-.52-.25-1.06-.42-1.58a6.13,6.13,0,0,0-1.64-2.84,21,21,0,0,0-6.5-3.25,77.62,77.62,0,0,0-7.65-2.09c-1.39-.31-2.77-.59-4.07-.82l.2-.05-19.79,15.47-5.93,4.57-1.61,1.21a4.86,4.86,0,0,1-.58.4,2.82,2.82,0,0,1,.52-.48l1.56-1.28,5.83-4.69,19.68-15.61.09-.07.12,0c1.31.23,2.7.51,4.09.82a72.74,72.74,0,0,1,7.7,2.12,21,21,0,0,1,6.66,3.38,6.67,6.67,0,0,1,1.76,3.05c.17.55.28,1.09.42,1.62l.29,1.59c.32,2.09.48,4.05.59,5.83.2,3.58.19,6.47.16,8.47,0,1-.05,1.78-.07,2.3A4.5,4.5,0,0,1,224.67,387.66Z" style="fill:#455a64"></path><path d="M203,326.89a4.08,4.08,0,0,1-.54.23l-1.58.59c-1.37.5-3.36,1.23-5.8,2.15-4.9,1.84-11.61,4.5-19,7.58l-18.83,7.94-5.73,2.36-1.57.61a2,2,0,0,1-.56.18,3.12,3.12,0,0,1,.52-.28l1.53-.7L157.1,345c4.79-2.11,11.41-5,18.78-8.08s14.11-5.7,19-7.44c2.46-.88,4.47-1.56,5.87-2l1.61-.5A2.37,2.37,0,0,1,203,326.89Z" style="fill:#455a64"></path><path d="M171.47,229.75a4,4,0,0,0,1.13-7.87,4.16,4.16,0,0,0-4.11-6.73,5,5,0,0,0-7.77-3.53,5.59,5.59,0,0,0-6.88.35,4,4,0,0,0-3,7" style="fill:#263238"></path><path d="M153.26,216l.87-.06a17,17,0,0,1,18,14.37c1.24,8.13,2.49,17.12,2.75,21.51.52,9.08-8.46,11.13-8.46,11.13l1.53,10.85-22.07.86-4.73-39.41C139.63,225.84,143.85,217.18,153.26,216Z" style="fill:#ae7461"></path><path d="M166.38,262.91a22,22,0,0,1-12.07-2.66s3.39,6.48,12.39,5Z" style="fill:#6f4439"></path><path d="M169.36,239.42a1.29,1.29,0,0,1-1.15,1.39,1.24,1.24,0,0,1-1.42-1.07,1.3,1.3,0,0,1,1.16-1.4A1.23,1.23,0,0,1,169.36,239.42Z" style="fill:#263238"></path><path d="M170.44,234.85c-.14.18-1.18-.48-2.57-.38s-2.37.88-2.53.71.06-.38.48-.74a3.62,3.62,0,0,1,2-.78,3.53,3.53,0,0,1,2.07.51C170.35,234.47,170.52,234.77,170.44,234.85Z" style="fill:#263238"></path><path d="M156.78,240.13a1.3,1.3,0,0,1-1.16,1.39,1.24,1.24,0,0,1-1.42-1.07,1.31,1.31,0,0,1,1.16-1.4A1.25,1.25,0,0,1,156.78,240.13Z" style="fill:#263238"></path><path d="M156.75,236.07c-.15.18-1.18-.48-2.58-.37s-2.36.87-2.53.71.06-.39.49-.75a3.54,3.54,0,0,1,2-.77,3.41,3.41,0,0,1,2.07.51C156.66,235.7,156.82,236,156.75,236.07Z" style="fill:#263238"></path><path d="M162.54,246.06a9.17,9.17,0,0,1,2.24-.57c.35-.06.68-.15.72-.4a1.8,1.8,0,0,0-.31-1L164,241.41c-1.73-3.76-3-6.86-2.86-6.93a47.81,47.81,0,0,1,3.41,6.69l1.2,2.65a2.07,2.07,0,0,1,.28,1.39.88.88,0,0,1-.55.56,2.54,2.54,0,0,1-.59.13A9.22,9.22,0,0,1,162.54,246.06Z" style="fill:#263238"></path><path d="M157.59,230.62c-.16.37-1.39.07-2.86.12s-2.7.39-2.86,0c-.07-.17.17-.51.68-.83a4.5,4.5,0,0,1,2.18-.62,4.29,4.29,0,0,1,2.17.51C157.41,230.12,157.65,230.45,157.59,230.62Z" style="fill:#263238"></path><path d="M170.11,229.09c-.27.34-1.45.09-2.83.17s-2.54.4-2.84.08c-.13-.15,0-.48.53-.81a4.42,4.42,0,0,1,2.26-.68,4.36,4.36,0,0,1,2.3.47C170,228.62,170.23,228.93,170.11,229.09Z" style="fill:#263238"></path><path d="M170.92,226.17s-2.79-5.52-5.63-6.65c-3.43-1.37-4.6,2.37-7.83,1.71s-6.5-2-9.56.69c-3.35,2.92-1.56,4.68-1.49,8.72.26,16.4-2.4,21.22-3.79,13.59-.15-.84-2.54-1.34-3.13-4.88-.78-4.58-1.35-10.18-.55-13.52.68-2.83,2.12-4.84,4.79-7.15,4.23-3.63,10.35-4.13,14.53-4S170.8,219,170.92,226.17Z" style="fill:#263238"></path><path d="M143.18,243.94a2.46,2.46,0,0,0-2.83-2.18c-1.68.27-3.49,1.37-3.14,4.86.64,6.19,6.72,4.28,6.72,4.1S143.47,246.53,143.18,243.94Z" style="fill:#ae7461"></path><path d="M142.34,248.53s-.1.08-.27.19a1.14,1.14,0,0,1-.81.09,2.68,2.68,0,0,1-1.48-2.26,3.56,3.56,0,0,1,.15-1.58,1.25,1.25,0,0,1,.72-.91.55.55,0,0,1,.67.23c.1.17.07.29.11.3s.12-.12,0-.37a.62.62,0,0,0-.28-.36.79.79,0,0,0-.61-.1,1.52,1.52,0,0,0-1,1.08,3.63,3.63,0,0,0-.2,1.76,2.8,2.8,0,0,0,1.85,2.51,1.14,1.14,0,0,0,1-.26C142.34,248.68,142.36,248.54,142.34,248.53Z" style="fill:#6f4439"></path><path d="M142.46,231.91a6,6,0,0,0,2.71,1,2,2,0,0,0,2.15-1.58c0-.44-.1-.93.16-1.29s1-.34,1.47-.32c1.82.07,3.79-2.07,4.12-3.86a1.63,1.63,0,0,0,2.2.3,6,6,0,0,0,1.4-1.44,2.56,2.56,0,0,1,2.06-1.21,6.48,6.48,0,0,0,1.37.2c.81-.13,1.14-1.11,1.2-1.93s.1-1.77.76-2.26a3.25,3.25,0,0,1,2.21-.21c.76.06,1.72-.19,1.86-.94a1.47,1.47,0,0,0-.36-1.1,4,4,0,0,0-4.85-1.19,5.45,5.45,0,0,0-10.08-.35,5.54,5.54,0,0,0-8.7,2.63,4,4,0,0,0-4.11,6.15,3.82,3.82,0,0,0-1.88,3.17,2.19,2.19,0,0,0,2.63,2.06,2.22,2.22,0,0,0,4,1.94" style="fill:#263238"></path><path d="M161.51,217.9s0,0,0,.12,0,.18,0,.33a3.92,3.92,0,0,1-.37,1.23,4.31,4.31,0,0,1-1.27,1.56,4.1,4.1,0,0,1-2.49.9l.1-.14a2.23,2.23,0,0,1,0,1.72,6.56,6.56,0,0,1-1,1.6,4.53,4.53,0,0,1-.65.76,2.11,2.11,0,0,1-1,.44,2.27,2.27,0,0,1-2-.58l.22-.08a4.67,4.67,0,0,1-1.74,3.36,3.4,3.4,0,0,1-2,.81,6.16,6.16,0,0,1-2-.3l.16-.09a4.88,4.88,0,0,1-1.34,2,2.6,2.6,0,0,1-2.12.74,3.41,3.41,0,0,1-2.82-2.49l.15.06a3.23,3.23,0,0,1-2.11.46,3.45,3.45,0,0,1-1.54-.56,3,3,0,0,1-.74-.71,1.09,1.09,0,0,1-.18-.31,3.56,3.56,0,0,0,1,.93,3.31,3.31,0,0,0,1.49.5,3,3,0,0,0,2-.47l.11-.07,0,.12a3.22,3.22,0,0,0,2.66,2.31,2.36,2.36,0,0,0,1.92-.7,4.6,4.6,0,0,0,1.26-1.91l0-.12.12,0a6.1,6.1,0,0,0,2,.28,3.18,3.18,0,0,0,1.84-.75,4.42,4.42,0,0,0,1.65-3.17l0-.3.21.22a2,2,0,0,0,1.81.51,1.9,1.9,0,0,0,.84-.38,4.65,4.65,0,0,0,.61-.71,6,6,0,0,0,.94-1.54,2.11,2.11,0,0,0,0-1.56l-.07-.14h.16a4,4,0,0,0,2.39-.83,4.34,4.34,0,0,0,1.27-1.48A4.65,4.65,0,0,0,161.51,217.9Z" style="fill:#455a64"></path><path d="M163.12,250.49c-.05-.23-1.55.19-3-.79s-1.72-2.63-1.93-2.58-.19.44,0,1.12a3.94,3.94,0,0,0,1.53,2.18,3.36,3.36,0,0,0,2.48.56C162.84,250.86,163.16,250.59,163.12,250.49Z" style="fill:#263238"></path><path d="M208.65,265.21l-.63,11-.73,2s.51,5.88.78,7.1,3.55,7,3.55,7l-1.93,6.52,10.64,1s1.2-5.81,1.76-6.58a6.38,6.38,0,0,0,.5-3.73c-.14-1.17-.53-8.17-.53-8.17s2.24-8.46.36-8.34l-.16,0a1.79,1.79,0,0,0-1.4,1.37c-.4,1.6-1.19,4.59-1.67,4.8l-1.12-.29s0-7.89-.31-9.29-.83-2.28-1.93-2.15c0,0-.7.54-.68.91s.29,9.1-.2,9.07-.49-.83-.49-.83-.08-10.66-.37-11.19a1.62,1.62,0,0,0-2-.92l-.52,6s-.32-4.84-1.29-5.46A1.35,1.35,0,0,0,208.65,265.21Z" style="fill:#ae7461"></path><path d="M216.86,286.91c-.08,0-.26-.85-1-2.12a8.91,8.91,0,0,0-4.27-3.8l-.16-.07v-.16c0-.78-.07-1.59-.11-2.42v-.06l0,0c.1-.28.2-.61.28-.93a9.18,9.18,0,0,0,.3-3.21,3.18,3.18,0,0,0-.39-1.35,1,1,0,0,0-.94-.54l.15-.1c-.85,1.41-1.56,2.59-2.07,3.4a6.82,6.82,0,0,1-.86,1.24,6.15,6.15,0,0,1,.64-1.37c.44-.85,1.1-2.05,1.9-3.5l.06-.09h.09a1.44,1.44,0,0,1,1.43.71,3.71,3.71,0,0,1,.49,1.56,9.39,9.39,0,0,1-.29,3.39q-.14.51-.3,1v-.11q0,1.26.09,2.43l-.17-.23a8.69,8.69,0,0,1,4.38,4.13,7.24,7.24,0,0,1,.6,1.65C216.86,286.69,216.89,286.91,216.86,286.91Z" style="fill:#6f4439"></path><path d="M214.6,278.77a7.27,7.27,0,0,1,3.43.49,7.06,7.06,0,0,1,3.05,1.61,28.35,28.35,0,0,1-3.22-1.11A28.16,28.16,0,0,1,214.6,278.77Z" style="fill:#6f4439"></path><polygon points="142.36 269.15 144.22 262.63 163.28 271.2 167.12 266.19 167.51 267.74 184.07 295.95 194.62 330.04 149.39 348.53 144.46 320.7 142.36 269.15" style="fill:#fafafa"></polygon><path d="M180,326.31a2.19,2.19,0,0,1-.12-.56c-.07-.43-.16-1-.26-1.61-.21-1.4-.54-3.42-1-5.91A168.68,168.68,0,0,0,174,299a170.25,170.25,0,0,0-7-18.49c-1-2.31-1.9-4.16-2.52-5.44l-.69-1.47a2.28,2.28,0,0,1-.21-.53,2.65,2.65,0,0,1,.3.48c.21.38.47.85.78,1.43.68,1.25,1.6,3.08,2.67,5.38A145.54,145.54,0,0,1,179,318.16c.41,2.51.68,4.54.83,5.95.06.66.12,1.2.16,1.63A2.26,2.26,0,0,1,180,326.31Z" style="fill:#263238"></path><path d="M169.74,272.85a4.52,4.52,0,0,1-.58.81l-1.72,2.13-.1.13-.14-.12-4.15-3.68.38-.11c-.46,1.63-1,3.42-1.51,5.3l-.09.3-.27-.14-1.21-.6c-4-2-7.59-3.79-10.19-5.12l-3.06-1.61a5.91,5.91,0,0,1-1.09-.65,6.81,6.81,0,0,1,1.18.47l3.13,1.46c2.64,1.25,6.27,3,10.26,5l1.21.59-.37.16,1.56-5.28.11-.37.28.26,4.06,3.79h-.24l1.84-2A3.84,3.84,0,0,1,169.74,272.85Z" style="fill:#263238"></path><g style="opacity:0.30000000000000004"><path d="M145.08,378.16l4.31.33,6.24-32.62s-6.8,4.14-7,4.66S145.08,378.16,145.08,378.16Z"></path></g><path d="M143.5,264.56l-1.79,4.72-12.59,8.25,4.69,52.77s-9.07,25.74-9.07,37.13,2.53,16.88,5.48,18.36,14.35-4,14.35-4,1.22-6.72,7.84-21.94S166.08,328,166.08,328s2.11-8.23-2.74-23.2S143.5,264.56,143.5,264.56Z" style="fill:#455a64"></path><path d="M208.72,296c-.42.63-6.71,11.54-6.71,11.54s-14.18-33.83-19.15-34.36c-5.15-.54-1.38,15.19-1.38,15.19l12.37,37.74s8.69,2.69,13.54-.48,15.78-25,15.78-25Z" style="fill:#455a64"></path><path d="M167.5,267.5s11.94,23.3,15.36,35.65c2.24,8.09,6,28.86,6,28.86l9.11-3.18-8.23-27.22-6.85-28.48L172.24,271Z" style="fill:#455a64"></path><path d="M164,325.68a2.65,2.65,0,0,1-.35-.49c-.24-.39-.55-.87-.93-1.47l-3.31-5.45c-2.79-4.68-6.59-11-10.78-18.08-2.08-3.55-4.12-6.88-5.82-10a32.19,32.19,0,0,1-3.41-8.85,17.65,17.65,0,0,1-.2-6.39,13.24,13.24,0,0,1,.4-1.7,3,3,0,0,1,.21-.56c.06,0-.22.8-.41,2.29a18.83,18.83,0,0,0,.36,6.29,32.7,32.7,0,0,0,3.48,8.7c1.7,3.1,3.76,6.44,5.84,10l10.64,18.15,3.18,5.54.84,1.51A2.12,2.12,0,0,1,164,325.68Z" style="fill:#263238"></path><path d="M186.67,280.47a3.32,3.32,0,0,1,.2.47c.14.37.3.82.5,1.36.41,1.19.95,2.94,1.56,5.11a175.46,175.46,0,0,1,3.65,17.21c.55,3.39,1.09,6.61,1.57,9.56.24,1.46.48,2.85.69,4.16a29.65,29.65,0,0,0,.89,3.55c.68,2.13,1.31,3.85,1.69,5.05.19.6.33,1.07.42,1.39a1.81,1.81,0,0,1,.1.5,1.77,1.77,0,0,1-.2-.47c-.14-.37-.31-.81-.51-1.36-.44-1.18-1.12-2.86-1.85-5a28.36,28.36,0,0,1-1-3.58c-.23-1.31-.48-2.7-.74-4.16-.5-2.94-1-6.17-1.62-9.55-1.13-6.77-2.37-12.85-3.48-17.21-.57-2.18-1.06-3.93-1.41-5.14l-.4-1.39A1.81,1.81,0,0,1,186.67,280.47Z" style="fill:#263238"></path><path d="M172.24,271a2,2,0,0,1,.48.24,14.82,14.82,0,0,1,1.27.88,33.17,33.17,0,0,1,4.1,3.9c.8.89,1.66,1.88,2.5,3s1.63,2.42,2.44,3.77a51.82,51.82,0,0,1,4.38,9.31,47.4,47.4,0,0,1,2.53,10,33.7,33.7,0,0,1,0,8.4,39.6,39.6,0,0,1-1.07,5.56c-.17.64-.32,1.14-.43,1.47a2.22,2.22,0,0,1-.19.51,1.73,1.73,0,0,1,.09-.53c.09-.4.2-.9.34-1.5a49.86,49.86,0,0,0,.89-5.55,34.85,34.85,0,0,0-.13-8.3,49.67,49.67,0,0,0-2.55-9.86,53,53,0,0,0-4.31-9.23c-.79-1.36-1.56-2.64-2.37-3.77s-1.64-2.13-2.42-3a38.77,38.77,0,0,0-4-4C172.85,271.45,172.21,271.07,172.24,271Z" style="fill:#263238"></path><path d="M143.87,357a1.77,1.77,0,0,1,.19.55,15,15,0,0,1,.33,1.61,21.71,21.71,0,0,1,.09,5.89l0,.23-.23,0a80.79,80.79,0,0,0-19.26-1l-.48,0,.28-.37,3.43-4.53a12.68,12.68,0,0,1,1.37-1.65,16,16,0,0,1-1.17,1.8l-3.28,4.63-.19-.34a70.76,70.76,0,0,1,19.37,1l-.25.18a24.35,24.35,0,0,0,.09-5.8C144,357.76,143.82,357,143.87,357Z" style="fill:#263238"></path><path d="M129.12,277.53s-8.83,5.89-10,12.63c-1.58,9.07,1.55,40.86,2.38,48.09s5.57,13.62,10.52,14,44.17-13.83,44.17-13.83L172.26,324l-28.48,5.78-2.89-33.43Z" style="fill:#455a64"></path><path d="M173.57,327.94a65.33,65.33,0,0,1,14.68-.62c6.89.67,8,2.27,8,2.27L175.7,337.9Z" style="fill:#ae7461"></path><path d="M141.26,300.61l2.52,29.17L172.26,324l3.92,14.45s-30,11.85-34.18,12.38-15.61,2.66-18.06-5" style="fill:#455a64"></path><path d="M123.94,345.87a1.24,1.24,0,0,1,.13.25l.35.76a7.13,7.13,0,0,0,2,2.43,10.31,10.31,0,0,0,4.7,1.81,27.42,27.42,0,0,0,6.8,0c1.26-.12,2.58-.32,4-.5a35.42,35.42,0,0,0,4.15-1.17c2.86-1,5.89-2.05,9.09-3.23,6.4-2.38,13.45-5.1,20.91-8l-.16.31-2.16-8c-.6-2.19-1.19-4.36-1.76-6.48l.3.19L143.82,330l-.24.05,0-.25c-.72-8.77-1.32-16.06-1.74-21.19-.19-2.53-.34-4.52-.45-5.91,0-.66-.08-1.18-.1-1.56a2.12,2.12,0,0,1,0-.53,4.49,4.49,0,0,1,.07.53c0,.38.1.89.17,1.55.14,1.39.33,3.38.57,5.9.47,5.12,1.13,12.4,1.92,21.18l-.26-.2,28.48-5.82.24-.05.06.24c.58,2.12,1.16,4.28,1.76,6.47l2.16,8,.06.23-.21.08c-7.47,2.93-14.53,5.64-20.94,8-3.21,1.17-6.25,2.25-9.12,3.19A34.77,34.77,0,0,1,142,351c-1.38.17-2.7.36-4,.47a26.76,26.76,0,0,1-6.87-.11,10.25,10.25,0,0,1-4.78-1.92,7,7,0,0,1-2-2.53l-.31-.79A1,1,0,0,1,123.94,345.87Z" style="fill:#263238"></path><path d="M123.87,283.42a7.26,7.26,0,0,1,2.54,0,15.34,15.34,0,0,1,10.34,6.15,7.05,7.05,0,0,1,1.22,2.23c-.08.05-.54-.8-1.51-2a17.13,17.13,0,0,0-4.52-3.91,17.44,17.44,0,0,0-5.59-2.11C124.83,283.51,123.87,283.51,123.87,283.42Z" style="fill:#263238"></path><path d="M141.19,452.49H70.92V348.87h65.43a4.52,4.52,0,0,1,4.52,4.52Z" style="fill:#6B2B87"></path><g style="opacity:0.30000000000000004"><polygon points="111.73 452.49 70.92 452.49 70.92 348.87 111.51 349.02 111.73 452.49"></polygon></g><path d="M141.19,452a2.19,2.19,0,0,1,0-.45q0-.47,0-1.29c0-1.17,0-2.85,0-5,0-4.36-.05-10.62-.08-18.34,0-15.51,0-36.89-.08-60.51,0-3.87,0-7.68-.09-11.39l0-1.39a6.91,6.91,0,0,0-.2-1.3,3.84,3.84,0,0,0-1.39-2.1,7.43,7.43,0,0,0-4.92-1.07h0L88.89,349,75.68,349l-3.53,0-.92,0a1.09,1.09,0,0,1-.31,0l.31,0,.92,0,3.53,0,13.21-.07,45.38-.08h0a9.88,9.88,0,0,1,2.71.11,6.09,6.09,0,0,1,2.57,1.06,4.23,4.23,0,0,1,1.58,2.36,6.88,6.88,0,0,1,.22,1.42l0,1.39c.13,3.72.1,7.54.1,11.41,0,23.62,0,45-.07,60.51,0,7.72-.07,14-.09,18.34,0,2.14,0,3.82,0,5,0,.55,0,1,0,1.29A2.56,2.56,0,0,1,141.19,452Z" style="fill:#263238"></path></g></svg>
